<?xml version="1.0" encoding="UTF-8"?>
<svg version="1.1" viewBox="0 0 1600 336" width="1280" height="1280" xmlns="http://www.w3.org/2000/svg">
<path transform="translate(705 131)" d="m0 0c2.5 1.62 2.84 3.29 3.71 6.11 0.59 1.67 0.59 1.67 1.19 3.38 2.01 8.97-2.26 17.5-6.65 25.2-3.39 5.15-7.42 9.59-11.7 14-0.51 0.52-1.03 1.05-1.55 1.59-2.7 2.66-4.57 4.09-8.27 4.84l-1 3c-2.59 1.87-2.59 1.87-5.93 3.88-0.58 0.35-1.16 0.7-1.76 1.06-4.97 2.95-10.1 5.61-15.3 8.06 1.62 4.84 4.71 7.26 9.07 9.75 14.8 5.53 32 0.01 45.9-5.75 3.57-1.64 7.08-3.4 10.6-5.23 3.74-1.97 7.36-3.69 11.4-4.77l2 1-1 13 4 2 3 2c24 2.14 48.8-5.18 69.7-17 2.62-1.15 4.49-1.23 7.33-1.03v4c0.62 1.69 1.28 3.36 2 5 0.96-0.62 1.91-1.25 2.89-1.9 1.27-0.82 2.54-1.65 3.8-2.47 0.94-0.62 0.94-0.62 1.9-1.25 5.91-3.84 10.2-6 17.4-4.98 2.02 0.6 2.02 0.6 4.02 2.79 1 2.81 1 2.81 1.44 6 0.19 0.93 0.37 1.86 0.56 2.81 1.8 1.28 1.8 1.28 4 2 0.56 0.5 1.12 1.01 1.7 1.52 6.03 3.88 16.1 2.03 22.9 0.64 13.9-3.26 27.7-8.43 40.2-15.2 6.5-3.51 11.8-5.47 19.2-3.95 2.23 0.85 4.21 1.8 6.25 3.03 2 1.11 3.47 1.7 5.75 1.97 1.68-0.65 3.34-1.32 5-2 2.9-0.19 2.9-0.19 5.82-0.12 0.97 0.02 1.95 0.03 2.95 0.05 0.74 0.03 1.48 0.05 2.23 0.07v6c-7.42 0.99-7.42 0.99-15 2 0.99 2.64 1.98 5.28 3 8 1.85-0.53 1.85-0.53 3.73-1.07 4.6-1.31 9.19-2.63 13.8-3.94 1.98-0.57 3.96-1.14 5.95-1.71l8.58-2.46c0.87-0.25 1.75-0.5 2.65-0.76 15.3-4.37 15.3-4.37 20.3-4.06l1 4c-4.55 3.18-9.32 4.4-14.6 5.82-0.93 0.25-1.86 0.51-2.81 0.77-2.96 0.81-5.92 1.61-8.89 2.41-2.95 0.81-5.9 1.61-8.85 2.42-1.83 0.5-3.67 1-5.5 1.49-5.24 1.43-10.4 2.94-15.3 5.09-1.05 2.61-1.05 2.61-1 6-1.71 15.8-8.62 30.7-17 44h-2c-0.08 0.73-0.17 1.45-0.26 2.2-0.87 3.33-2.22 5.05-4.42 7.68-0.73 0.87-1.46 1.74-2.21 2.64-0.7 0.82-1.39 1.64-2.11 2.48-0.48 0.63-0.97 1.25-1.47 1.89-10.2 12.8-26.2 23.5-42.5 26.1-9.5 0.72-18.1 1.09-26-5-5.75-5.43-10.1-11-11-19 0.86-10.2 3-18.3 10-26 0.86-0.96 1.72-1.93 2.6-2.92 7.22-7.79 15.3-13.6 24.4-19.1 1.1-0.66 2.19-1.32 3.31-2.01 19.5-11.1 41.6-17.9 62.7-25l-1-5c-3.89 1.13-7.17 2.65-10.7 4.63-5.43 2.76-10.3 3.44-16.3 2.37-3.45-2.04-4.77-3.66-7-7-2.44 0-4.02 0.71-6.3 1.61-35.1 13.6-35.1 13.6-52 8.39-4.98-3.62-9.65-8.78-10.8-15-5.2-1.46-7.61-0.13-12.2 2.33-3.99 2.42-7.71 5.16-11.4 8-2.35 1.67-2.35 1.67-5.35 2.67-1.66 1.5-1.66 1.5-3 3-2.32-3.48-2.08-4.93-2-9l-1-3c-0.64 0.26-1.29 0.53-1.96 0.8-1 0.39-2 0.79-3.04 1.2-0.61 0.25-1.22 0.49-1.85 0.74-46.5 18.4-46.5 18.4-65.3 11.1-6.07-3.83-8.09-6.92-9.88-13.8-0.53 0.25-1.07 0.51-1.62 0.77-41.9 19.5-41.9 19.5-63.2 12.1-6.36-2.64-9.6-6.22-13.2-11.9v-2c-0.8 0.35-0.8 0.35-1.63 0.71-2.47 1.06-4.95 2.11-7.43 3.17-0.85 0.36-1.69 0.73-2.57 1.1-12.6 5.38-12.6 5.38-19.5 4.96-5.68-0.13-10.7 1-16.2 2.41-2.66 0.65-2.66 0.65-4.66 0.65v2c-4.14 0.09-8.29 0.14-12.4 0.19-1.17 0.03-2.33 0.05-3.53 0.08-6.98 0.06-12.6-0.57-19-3.27-0.99-0.33-1.98-0.66-3-1 0.9-8.96 5.52-16 12-22 12-9.76 29.6-16.1 45.3-16 3.09 0.37 4.5 0.74 6.73 2.97 0.49 3.04 0.6 5.09-1.12 7.73-1.23 1.48-2.55 2.88-3.88 4.27l-3-2c-0.83 0.53-1.66 1.07-2.52 1.61-5.74 3.62-11.3 6.99-17.6 9.6-2.43 1.04-4.6 2.43-6.86 3.79-1.66 0.74-3.33 1.48-5.01 2.18-2.33 0.97-4.62 1.99-6.92 3.01-0.77 0.34-1.55 0.69-2.34 1.04-0.57 0.26-1.14 0.51-1.73 0.77 14.4 7.22 40.5-0.69 55.1-5.43 5.23-1.84 10.2-4 15-6.65 1.85-0.92 1.85-0.92 3.85-0.92-0.16-0.74-0.33-1.48-0.5-2.25-0.69-5.22-0.96-10.5-0.5-15.8l2-2c0.43-1.74 0.8-3.49 1.13-5.25 4.03-16.8 16.4-31.8 30.9-40.8 6.94-4.19 15.5-6.15 23.3-3.11zm-27.3 12.5c-1.97 1.61-1.97 1.61-4.25 3.17-6.43 4.48-9.33 9.48-12.7 16.4-0.52 0.87-1.04 1.73-1.59 2.62-2.54 4.3-3.41 8.42-3.41 13.4-1.48 0.5-1.48 0.5-3 1v14c5.62 1.13 7.59 0.12 12.2-2.56 0.67-0.37 1.34-0.74 2.02-1.12 15.2-8.55 28.4-19 35.7-35.3 0.26-3.25 0.26-3.25 0-6h2c0.09-1.6 0.14-3.2 0.19-4.81 0.04-0.89 0.07-1.79 0.11-2.71-0.09-2.51-0.09-2.51-1.62-4.24-8.05-5.93-19.2 0.76-25.7 6.15zm-70 37.6v1h7v-1h-7zm41 1v5h1v-5h-1zm-72.9 17.8c-2.51 2.62-4.85 5.27-7.07 8.15l1 2c12.2-2.13 23.1-7.38 34-13.1 0.79-0.41 1.58-0.82 2.39-1.25 4.82-2.57 9.32-5.3 13.6-8.69v-2l2-1c-12.3-8.22-37.3 7.56-45.9 15.8zm105-16.8 1 2zm-84 1 4 1zm-8 3 8-1c-3.4-1.21-4.93-0.86-8 1zm31 1 1 2zm-33 0c-4.23 1.69-4.23 1.69-7 5 4.08-1.3 4.08-1.3 8-3l-1-2zm-10 6-1 2c0.99-0.33 1.98-0.66 3-1l-2-1zm346 9c0.33 2.61 0.33 2.61 1 5 7.58 0.61 12.6-0.89 19-5 1.74-1.57 1.74-1.57 3-3-4.04-3.23-7.56-3.5-12.6-3.36-4.53 0.67-7.31 3.23-10.4 6.36zm35-6v1h5v-1h-5zm-301 1 1 2zm177 2-2 2h3l-1-2zm165 1 4 1zm-180 3 1 3zm91 0 2 2 1-2h-3zm35 0-1 2h2l-1-2zm-379 1 1 3zm64 5 4 1zm159 0 4 1zm108-1-3 2 5-1-2-1zm-272 2v1h5v-1h-5zm261 1 4 1zm-292 5v1h6v-1h-6zm353 0 1 2zm-5 1 4 1zm4 1v2c-1.15 0.21-2.31 0.42-3.5 0.64-7.39 1.64-14.4 4.54-21.4 7.24-1.42 0.53-2.83 1.07-4.25 1.6-2.73 1.03-5.45 2.07-8.17 3.12-2.18 0.84-4.37 1.67-6.56 2.5-5.71 2.18-10.8 4.86-16 8.09-0.78 0.48-1.56 0.96-2.36 1.46-13 8.17-24.2 17.2-29.3 32.2-0.53 3.15-0.46 6.22-0.43 9.4 0.01 1.27 0.02 2.53 0.03 3.83 0.01 0.97 0.02 1.93 0.03 2.92 0.99-0.49 0.99-0.49 2-1 0.43 0.53 0.85 1.07 1.29 1.61 4.61 5.56 8.41 9.87 15.8 10.8 15.8 0.56 29.4-5.42 41.2-15.8 1.6-1.51 3.18-3.03 4.75-4.57 0.69-0.63 1.38-1.27 2.09-1.93 16-15.3 27.8-36.4 30.6-58.4 0.35-2.65 0.35-2.65 1.35-5.65h-7zm-30 8-3 2 5-1-2-1zm-5 2-1 2c0.99-0.33 1.98-0.66 3-1l-2-1zm-18 8-2 2 4-1-2-1zm-15 9-1 2c0.99-0.33 1.98-0.66 3-1l-2-1zm-8 6-2 2h3l-1-2zm-6 5-1 2h2l-1-2zm-3 2 1 2 1-2h-2zm80 0v3zm-82 3 1 2zm70 14 1 2 1-2h-2zm-3 4-4 4 1 2 4-4-1-2zm-8 8v3l2-3h-2zm-4 4c-0.99 1.49-0.99 1.49-2 3l4-2-2-1zm-4 3 1 2 1-2h-2zm-7 6-3 2h4l-1-2zm-5 2c-2.03 0.94-4.03 1.94-6 3 0.99 0.33 1.98 0.66 3 1 2.68-1.37 2.68-1.37 5-3l-2-1zm-11 4v1h5v-1h-5zm-6 2 4 1z" fill="#2B2C30"/>
<path transform="translate(592 29.9)" d="m0 0c2.48 0.13 2.48 0.13 4.48 2.13v4c-1.13-0.19-2.27-0.37-3.44-0.56-1.17-0.15-2.35-0.29-3.56-0.44l-1 1c-3.01 0.07-6.01 0.09-9.02 0.06-0.93 0-1.86-0.01-2.81-0.01-3.97-0.02-7.95-0.05-11.9-0.07-10.5-0.07-21-0.06-31.6 0.39-1.28 0.05-1.28 0.05-2.57 0.1-4.53 0.05-4.53 0.05-8.11 2.53-2.12 0.34-2.12 0.34-4.77 0.47-0.99 0.05-1.98 0.11-3 0.16-1.08 0.05-2.15 0.1-3.26 0.15-1.1 0.06-2.2 0.12-3.33 0.18-3.53 0.19-7.05 0.36-10.6 0.54-4.63 0.23-9.27 0.47-13.9 0.72-1.61 0.07-1.61 0.07-3.25 0.14-0.99 0.06-1.99 0.11-3.01 0.17-0.88 0.04-1.75 0.08-2.65 0.13-2.53 0.22-2.53 0.22-5.25 2.34-2.3 0.34-4.62 0.59-6.93 0.78-0.68 0.06-1.35 0.12-2.05 0.18-2.15 0.19-4.3 0.36-6.46 0.54-2.83 0.23-5.66 0.47-8.49 0.72-1.89 0.15-1.89 0.15-3.82 0.31-2.98 0.43-4.66 1.06-7.25 2.47-2 0.39-2 0.39-4.08 0.6-0.77 0.07-1.54 0.15-2.33 0.24-0.79 0.07-1.59 0.14-2.4 0.22-9.89 0.19-9.89 0.19-18.2 3.94-0.58-0.17-1.16-0.33-1.75-0.5-3.18-0.71-5.18 0.45-8.25 1.5-2.43 0.58-4.86 1.13-7.3 1.65-1.38 0.31-2.77 0.61-4.15 0.91l-6.48 1.41c-2.11 0.45-4.21 0.91-6.3 1.37-1.88 0.41-1.88 0.41-3.79 0.82-3.07 0.6-3.07 0.6-4.98 2.84-2.04 0.65-2.04 0.65-4.54 1.22-0.91 0.21-1.82 0.42-2.76 0.63-0.95 0.22-1.91 0.43-2.89 0.65-1.87 0.42-3.74 0.85-5.6 1.28-1.34 0.3-1.34 0.3-2.7 0.61-2.22 0.54-4.38 1.15-6.56 1.83-2.95 0.78-2.95 0.78-4.95-0.22v2c-0.8 0.23-1.6 0.46-2.42 0.7-6.66 1.97-13.1 4.21-19.4 6.96-3.44 1.46-6.92 2.8-10.4 4.15-21.5 8.49-42 20.3-60 34.9-1.8 1.31-1.8 1.31-4.8 2.31-0.29 0.58-0.58 1.15-0.88 1.75-1.51 3.02-3.73 4.85-6.12 7.25-10.6 12.2-15.1 24.8-14 41 0.3 1.67 0.63 3.34 1 5h2c0.16 0.86 0.33 1.73 0.5 2.62 2.1 4.72 5.25 6.63 9.5 9.38 0.57 0.39 1.14 0.79 1.73 1.19 4.76 3.06 9.73 3.96 15.3 4.81 0.04 1.66 0.04 3.33 0 5l-1 1c-8.94-0.15-16.7-3.24-23.5-9.19-3.66-3.93-6.43-7.42-7.53-12.8h-2c-3.85-10.4-2.13-21.4 0-32h2c0.27-0.89 0.55-1.78 0.83-2.69 6.61-18.7 26.4-33.9 43.2-43.3 0.99-0.33 1.98-0.66 3-1 1.7-0.82 3.38-1.65 5.06-2.5 0.88-0.45 1.76-0.89 2.66-1.35 0.75-0.38 1.51-0.76 2.28-1.15l2-1c0.43-0.46 0.85-0.93 1.29-1.4 2.17-2.03 4.35-2.99 7.07-4.2 1.08-0.49 2.17-0.98 3.28-1.48 1.17-0.51 2.34-1.02 3.55-1.55 0.6-0.26 1.2-0.53 1.82-0.8 45.8-20.1 96-34.4 146-41.2 2.35-0.28 2.35-0.28 4.34-1.39 2.36-0.35 4.72-0.66 7.09-0.94 0.7-0.08 1.4-0.17 2.12-0.26 2.24-0.27 4.49-0.54 6.73-0.8 2.24-0.27 4.47-0.54 6.71-0.81 1.4-0.17 2.79-0.33 4.18-0.49 2.87-0.35 5.42-0.78 8.17-1.7 1.63-0.22 3.26-0.4 4.9-0.56 1.01-0.1 2.02-0.19 3.06-0.29 1.1-0.1 2.2-0.2 3.34-0.31 1.16-0.11 2.32-0.21 3.52-0.32 3.83-0.35 7.66-0.69 11.5-1.02 1.31-0.12 2.61-0.23 3.95-0.35 26.8-2.32 53.6-3.14 80.5-3.14 1.91-0.01 3.83-0.07 5.74-0.14zm-336 73.1-2 2 4-1-2-1zm-19 13 1 2 1-2h-2zm-8 8 1 2z" fill="#27282C"/>
<path transform="translate(1243,185)" d="m0 0c2 1 2 1 3.38 3.94 1.77 3.34 2.18 3.85 5.62 5.06 3.28 0.24 3.28 0.24 6.75 0.12 1.17-0.01 2.34-0.03 3.55-0.05 0.89-0.02 1.78-0.05 2.7-0.07 0.19 4.19-0.14 7-2 10.8-1.56 2.99-1.56 2.99-2 6.25v5c23.2 9.39 55.8-2.83 77.6-12 4.62-2.03 8.98-4.36 13.3-7.04 2.5-1.11 3.58-0.88 6.09 0.07-0.85 4.12-1.51 5.66-5.03 8.09-1.29 0.64-2.59 1.25-3.91 1.85-0.7 0.33-1.41 0.66-2.13 1.01-18.3 8.44-37.2 13.4-56.9 17-0.72 0.13-1.44 0.27-2.19 0.41-4.44 0.69-8.94 0.75-13.4 0.84-1.26 0.03-2.51 0.05-3.79 0.08-5.23-0.48-8.46-2.44-12.5-5.64-3.4-4.27-2.07-9.66-1.55-14.7 0.49-2.95 0.49-2.95 1.49-3.95-7.31-0.72-11.4 0.81-17.6 4.59-2.38 1.41-2.38 1.41-5.38 2.41-1.01 0.41-2.02 0.81-3.05 1.23-7.86 3.15-15.7 5.63-24 7.58-1.31 0.31-1.31 0.31-2.64 0.63-10.7 2.43-25.8 5.7-36.1 0.87-3.15-2.24-5.26-4-7.25-7.31v-4l-2-1h2v-2c-3.8 0.97-3.8 0.97-7 3-1.67 0.04-3.33 0.04-5 0v2c-2.52 0.82-5.04 1.63-7.56 2.44-0.71 0.23-1.41 0.46-2.14 0.69-12.8 4.07-25.2 4.3-37.4-1.67-2.65-1.43-5.27-2.91-7.86-4.46-0.76 0.57-1.52 1.13-2.3 1.71-0.99 0.74-1.99 1.47-3.01 2.23-0.99 0.73-1.97 1.46-2.99 2.21-4.39 3.01-8.5 3.58-13.7 2.85-2.12-1.44-2.12-1.44-3-4 0.32-6.28 2.59-11.6 7-16 5.9-4.84 11.4-8.44 19.1-9.38 3.79 0.49 5.37 1.58 7.94 4.38 0.25 2.5 0.25 2.5 0 5 0.29 1.34 0.61 2.68 1 4-2.38-0.19-2.38-0.19-5-1-1.31-2.56-1.31-2.56-2-5-5.77-0.46-8.46 0.45-13 4-0.89 0.62-1.77 1.24-2.69 1.88-2.69 2.47-3.92 4.76-5.31 8.12v2c1.88-1.08 3.75-2.16 5.62-3.25 1.1-0.63 2.2-1.27 3.33-1.92 2.29-1.38 4.37-2.77 6.49-4.39 2.56-1.44 2.56-1.44 5-1 2.56 1.56 2.56 1.56 5.68 4 7.08 5.18 16.3 6.58 24.9 5.56 10.4-1.73 19.3-5.2 28.6-10.1 1.14-0.58 1.14-0.58 2.3-1.18 0.67-0.36 1.33-0.71 2.02-1.08 2.06-0.65 2.06-0.65 7.06 0.35v14l6 3c23.3 1.5 45.3-4.56 66-15h2c-0.16-0.6-0.31-1.21-0.47-1.83-0.2-0.8-0.39-1.6-0.59-2.42-0.2-0.79-0.4-1.58-0.6-2.39-0.36-2.5-0.25-4.02 0.66-6.36l2-1zm0 2 1 2zm-153 3 4 1zm-3 1-1 2c0.99-0.33 1.98-0.66 3-1l-2-1zm66 13-2 2h3l-1-2zm67 6 4 1zm-88 1 4 1zm-12 2v1h8v-1h-8zm84 2 4 1zm-4 1 4 1zm96 4v1h6v-1h-6zm-4 1 4 1z" fill="#2D343B"/>
<path transform="translate(705 131)" d="m0 0c2.5 1.62 2.84 3.29 3.71 6.11 0.59 1.67 0.59 1.67 1.19 3.38 2.01 8.97-2.26 17.5-6.65 25.2-3.39 5.15-7.42 9.59-11.7 14-0.51 0.52-1.03 1.05-1.55 1.59-2.7 2.66-4.57 4.09-8.27 4.84l-1 3c-2.59 1.87-2.59 1.87-5.93 3.88-0.58 0.35-1.16 0.71-1.76 1.08-3.59 2.16-7.18 3.87-11.1 5.48-3.39 1.58-3.39 1.58-5.08 4.76-0.28 2.33-0.31 4.46-0.17 6.8v3c-0.83-1.12-1.67-2.24-2.5-3.37-0.46-0.63-0.92-1.25-1.4-1.9-1.1-1.73-1.1-1.73-1.1-3.73-0.8 0.35-0.8 0.35-1.63 0.71-2.47 1.06-4.95 2.11-7.43 3.17-0.85 0.36-1.69 0.73-2.57 1.1-12.6 5.38-12.6 5.38-19.5 4.96-5.68-0.13-10.7 1-16.2 2.41-2.66 0.65-2.66 0.65-4.66 0.65v2c-4.14 0.09-8.29 0.14-12.4 0.19-1.17 0.03-2.33 0.05-3.53 0.08-6.98 0.06-12.6-0.57-19-3.27-0.99-0.33-1.98-0.66-3-1 0.9-8.96 5.52-16 12-22 12-9.76 29.6-16.1 45.3-16 3.09 0.37 4.5 0.74 6.73 2.97 0.49 3.04 0.6 5.09-1.12 7.73-1.23 1.48-2.55 2.88-3.88 4.27l-3-2c-0.83 0.53-1.66 1.07-2.52 1.61-5.74 3.62-11.3 6.99-17.6 9.6-2.43 1.04-4.6 2.43-6.86 3.79-1.66 0.74-3.33 1.48-5.01 2.18-2.33 0.97-4.62 1.99-6.92 3.01-0.77 0.34-1.55 0.69-2.34 1.04-0.57 0.26-1.14 0.51-1.73 0.77 14.4 7.22 40.5-0.69 55.1-5.43 5.23-1.84 10.2-4 15-6.65 1.85-0.92 1.85-0.92 3.85-0.92-0.16-0.74-0.33-1.48-0.5-2.25-0.69-5.22-0.96-10.5-0.5-15.8l2-2c0.43-1.74 0.8-3.49 1.13-5.25 4.03-16.8 16.4-31.8 30.9-40.8 6.94-4.19 15.5-6.15 23.3-3.11zm-27.3 12.5c-1.97 1.61-1.97 1.61-4.25 3.17-6.43 4.48-9.33 9.48-12.7 16.4-0.52 0.87-1.04 1.73-1.59 2.62-2.54 4.3-3.41 8.42-3.41 13.4-1.48 0.5-1.48 0.5-3 1v14c5.62 1.13 7.59 0.12 12.2-2.56 0.67-0.37 1.34-0.74 2.02-1.12 15.2-8.55 28.4-19 35.7-35.3 0.26-3.25 0.26-3.25 0-6h2c0.09-1.6 0.14-3.2 0.19-4.81 0.04-0.89 0.07-1.79 0.11-2.71-0.09-2.51-0.09-2.51-1.62-4.24-8.05-5.93-19.2 0.76-25.7 6.15zm-70 37.6v1h7v-1h-7zm41 1v5h1v-5h-1zm-72.9 17.8c-2.51 2.62-4.85 5.27-7.07 8.15l1 2c12.2-2.13 23.1-7.38 34-13.1 0.79-0.41 1.58-0.82 2.39-1.25 4.82-2.57 9.32-5.3 13.6-8.69v-2l2-1c-12.3-8.22-37.3 7.56-45.9 15.8zm105-16.8 1 2zm-84 1 4 1zm-8 3 8-1c-3.4-1.21-4.93-0.86-8 1zm31 1 1 2zm-33 0c-4.23 1.69-4.23 1.69-7 5 4.08-1.3 4.08-1.3 8-3l-1-2zm-10 6-1 2c0.99-0.33 1.98-0.66 3-1l-2-1zm80 4 1 2zm-91 7 1 3zm64 5 4 1zm-5 1v1h5v-1h-5zm-31 6v1h6v-1h-6z" fill="#2C3946"/>
<path transform="translate(850,195)" d="m0 0c3.06 3.34 3.27 6.65 4 11 1.8 3.76 3.13 5.48 7 7 2.58 0.29 2.58 0.29 5.35 0.23 1.02 0 2.03 0 3.08-0.01 1.58-0.01 1.58-0.01 3.19-0.03h3.22c5.25 0.2 5.25 0.2 10.2-1.19 2.12 0.44 2.12 0.44 4 1l1-2c3-1 3-1 7-1l2-2h4l1-2 1 1c1.67 0.04 3.33 0.04 5 0-8.46 8.46-30.6 11.9-42.2 12-6.26-0.38-11.3-1.3-15.7-6.11-5.36-6.59-5.36-6.59-6.12-10.9-5.21-1.46-7.62-0.13-12.2 2.32-4 2.42-7.71 5.17-11.4 8.01-2.35 1.67-2.35 1.67-5.35 2.67-1.67 1.5-1.67 1.5-3 3-2.32-3.48-2.08-4.93-2-9l-1-3c-0.65 0.26-1.3 0.52-1.97 0.79-1 0.4-2 0.8-3.03 1.21-0.61 0.24-1.22 0.49-1.86 0.74-46.5 18.4-46.5 18.4-65.3 11.1-6.08-3.83-8.09-6.92-9.88-13.8-0.81 0.38-0.81 0.38-1.63 0.76-41.8 19.5-41.8 19.5-63.2 12.1-3.86-1.54-6.38-2.61-8.57-6.23-0.69-3.22-0.04-4.73 1.44-7.62 0.78 0.61 0.78 0.61 1.57 1.24 0.7 0.54 1.4 1.08 2.12 1.64 0.68 0.53 1.37 1.06 2.07 1.61 7.99 5.38 17.4 5.08 26.6 3.39 11.8-2.68 22.6-6.49 33.2-12.1 3.74-1.97 7.35-3.69 11.4-4.77 0.99 0.5 0.99 0.5 2 1l-1 13 4 2 3 2c24 2.13 48.8-5.19 69.7-17 2.63-1.16 4.5-1.23 7.34-1.03v4c0.61 1.69 1.27 3.36 2 5 0.95-0.63 1.91-1.25 2.89-1.9 1.26-0.82 2.53-1.65 3.8-2.48 0.62-0.41 1.25-0.82 1.89-1.24 6.5-4.22 11.6-6.69 19.4-4.38zm-16 5-2 2h3l-1-2zm-15 4 1 3zm-30 6 4 1z" fill="#2B2D31"/>
<path transform="translate(374,89)" d="m0 0c1.5 1.13 1.5 1.13 3 3 0.58 4.29-0.34 7.16-2.14 11-3.04 6.95-4.51 14.5-6.17 21.9-0.57 2.52-1.18 5.04-1.81 7.55-1.15 4.58-2 9.12-2.63 13.8-0.14 0.98-0.27 1.95-0.4 2.96-0.14 1.01-0.27 2.01-0.41 3.05-0.21 1.54-0.21 1.54-0.42 3.11-0.34 2.53-0.68 5.05-1.02 7.58 5.66-1.01 11.3-2.06 17-3.14 29-5.56 58-10.2 87.5-12.7 0.75-0.07 1.5-0.13 2.27-0.2 8.75-0.72 17.4-1.17 26.2-0.99 0.04 1.67 0.04 3.33 0 5-1.66 1.66-3.64 1.15-5.92 1.18-41 0.79-82.4 6.58-122 16-3.81 0.85-3.81 0.85-6.81 0.85-0.09 1.57-0.09 1.57-0.18 3.18-0.09 1.37-0.17 2.75-0.26 4.13-0.04 0.69-0.08 1.38-0.12 2.09-0.19 3.07-0.46 5.67-1.44 8.6-0.02 2.59 0.03 5.14 0.12 7.73 0.04 1.13 0.04 1.13 0.07 2.27 0.08 2.4 0.16 4.79 0.25 7.19 0.05 1.62 0.1 3.25 0.16 4.87 0.12 3.98 0.26 7.96 0.4 11.9-1.88-0.31-1.88-0.31-4-1-2.41-3.61-2.27-6.21-2.23-10.4v-2.2c0-1.54 0.01-3.08 0.02-4.62 0.02-2.33 0.02-4.66 0.02-6.98 0.02-7.66 0.24-15.2 1.19-22.8-7.21 0.53-13.8 2.58-20.7 4.76-1.96 0.61-3.93 1.22-5.89 1.83-6.97 2.12-6.97 2.12-13.6 5.05-2.83 1.36-2.83 1.36-6.83 1.36 0.14-2.32 0.14-2.32 1-5 2.39-1.55 2.39-1.55 5.69-2.88 0.9-0.36 0.9-0.36 1.83-0.73 7.59-2.97 15.4-5.37 23.2-7.78 0.87-0.27 1.74-0.54 2.64-0.81 1.83-0.55 3.67-1.07 5.52-1.57 0.91-0.25 1.82-0.49 2.75-0.75 0.82-0.21 1.64-0.43 2.48-0.65 0.63-0.27 1.26-0.55 1.91-0.83 1.21-3.63 1.84-7.3 2.5-11.1 0.14-0.77 0.27-1.53 0.41-2.32 0.7-4.04 1.28-8.03 1.59-12.1 0.26-3.14 0.84-5.73 1.94-8.69 2.01-5.42 2.44-11 3.03-16.8 0.18-1.01 0.35-2.02 0.53-3.06l2-1c0.58-2.13 1.06-4.28 1.5-6.44 1.28-6.34 1.28-6.34 3.5-8.56 0.69-1.66 1.36-3.32 2-5l1-1zm0 7 1 3z" fill="#2F3E4D"/>
<path transform="translate(954,218)" d="m0 0c0.99 0.5 0.99 0.5 2 1 3.5 12.1-4.56 28.7-10.2 39.3-1.83 3.27-3.76 6.48-5.76 9.66h-2c-0.09 0.72-0.18 1.45-0.27 2.2-0.87 3.33-2.21 5.05-4.42 7.68-0.73 0.87-1.46 1.74-2.21 2.64-1.04 1.23-1.04 1.23-2.1 2.48-0.49 0.62-0.97 1.25-1.48 1.89-10.2 12.8-26.2 23.5-42.5 26.1-9.51 0.71-18.1 1.08-26-5-5.76-5.43-10.1-11-11-19 0.84-10 2.89-18.5 10-26 3-2 3-2 7-2 0.25-0.64 0.5-1.28 0.75-1.94 0.41-0.68 0.83-1.36 1.25-2.06 0.66-0.14 1.32-0.29 2-0.44 0.66-0.18 1.32-0.37 2-0.56 0.68-1.66 1.35-3.33 2-5 2.29-1.48 4.4-2.13 7-3v-2c0.54-0.18 1.09-0.36 1.64-0.55 0.72-0.25 1.44-0.5 2.17-0.76 1.06-0.37 1.06-0.37 2.15-0.74 2.19-1.02 3.39-2.21 5.04-3.95 1.88-0.56 1.88-0.56 4-1 3.41-1.16 5.63-2.26 8-5 0.99 0.33 1.98 0.66 3 1l1-2c1.99-0.71 3.99-1.37 6-2 1.35-0.64 2.69-1.3 4-2 2.34-1.17 4.42-1.49 7-2 2.71-0.57 5.33-1.24 8-2l1-2c0.99 0.5 0.99 0.5 2 1l1-2c2.29-0.41 2.29-0.41 5.06-0.62 0.92-0.08 1.84-0.15 2.79-0.23 0.71-0.05 1.42-0.1 2.15-0.15v2c-1.27 0.44-1.27 0.44-2.56 0.9-9.49 3.34-19 6.7-28.4 10.1-0.99 0.36-1.99 0.71-3.01 1.08-14.7 5.32-27.6 12.2-40 21.9-1.22 0.96-1.22 0.96-2.47 1.93-7.3 6.06-12.9 13.6-14.5 23.1-0.69 7.17-0.69 7.17 1.56 13.8 0.81 0.72 1.61 1.45 2.44 2.19 0.83 0.77 0.83 0.77 1.68 1.55 6.48 5.82 10.7 6.91 19.5 6.76 15.6-1.27 27.9-9.69 38.8-20.3 0.61-0.56 1.23-1.13 1.86-1.71 15.6-14.7 27.4-36.2 29.6-57.6 0.6-2.98 1.55-4.48 3.55-6.74zm-13 41v3zm-82 3 1 2zm70 14 1 2 1-2h-2zm-3 4-4 4 1 2 4-4-1-2zm-8 8v3l2-3h-2zm-4 4c-0.99 1.49-0.99 1.49-2 3l4-2-2-1zm-4 3 1 2 1-2h-2zm-7 6-3 2h4l-1-2zm-5 2c-2.03 0.93-4.04 1.93-6 3 0.99 0.33 1.98 0.66 3 1 2.68-1.37 2.68-1.37 5-3l-2-1zm-11 4v1h5v-1h-5zm-6 2 4 1z" fill="#2B2C2F"/>
<path transform="translate(1102 189)" d="m0 0c2.12 2.31 2.12 2.31 2.38 4.81-0.09 0.83-0.17 1.65-0.26 2.5 0.3 1.35 0.61 2.68 1 4-2.37-0.19-2.37-0.19-5-1-1.31-2.56-1.31-2.56-2-5-5.77-0.46-8.46 0.45-13 4-0.88 0.62-1.77 1.24-2.68 1.88-2.69 2.47-3.93 4.76-5.32 8.12v2c1.88-1.08 3.76-2.16 5.63-3.25 1.1-0.63 2.19-1.26 3.32-1.92 2.3-1.37 4.38-2.77 6.49-4.39 2.56-1.44 2.56-1.44 5-1 2.56 1.56 2.56 1.56 5.69 4 7.07 5.19 16.3 6.58 24.9 5.56 10.4-1.73 19.3-5.2 28.6-10.1 5.77-2.96 5.77-2.96 9.44-2.67 0.64 0.25 1.28 0.5 1.94 0.76-0.05 0.96-0.11 1.91-0.17 2.89-0.5 6.75-0.5 6.75 1.18 13.1 3.03 3.02 5.98 3.97 10.2 4.06 0.93-0.03 1.86-0.05 2.81-0.07v2h2v-2l4.38-0.06c0.81-0.01 1.62-0.02 2.46-0.04 2.16 0.1 2.16 0.1 4.16 1.1v-2h2v2c1.78-0.42 3.55-0.86 5.32-1.31 0.98-0.24 1.97-0.49 2.99-0.74 2.74-0.96 3.79-1.85 5.69-3.95h2v2c1.78-0.59 3.55-1.2 5.32-1.81 0.98-0.34 1.97-0.67 2.99-1.02 2.6-1.13 3.78-2.16 5.69-4.17 2.19 0.31 2.19 0.31 4 1-0.32 0.99-0.66 1.98-1 3-2.73 1.16-5.36 2.12-8.18 3-0.81 0.26-1.62 0.53-2.46 0.79-7.04 2.22-14.1 3.92-21.4 5.21-1.91 0.34-1.91 0.34-3.87 0.69-20.1 2-20.1 2-28.1-3.69-2.5-2.5-2.5-2.5-4-5v-4c-0.66-0.33-1.31-0.66-2-1h2v-2c-3.79 0.97-3.79 0.97-7 3-1.66 0.04-3.33 0.05-5 0v2c-2.51 0.82-5.03 1.63-7.56 2.44-0.7 0.23-1.41 0.46-2.13 0.7-12.8 4.06-25.2 4.29-37.4-1.67-2.65-1.44-5.26-2.92-7.86-4.47-0.75 0.57-1.51 1.13-2.3 1.72-0.99 0.73-1.98 1.46-3.01 2.22-0.98 0.73-1.97 1.46-2.99 2.21-4.39 3.01-8.5 3.59-13.7 2.85-2.12-1.43-2.12-1.43-3-4 0.32-6.28 2.6-11.6 7-16 6.92-5.67 16-12.5 24.9-7.31zm-11.9 1.31 4 1zm-3 1c-0.32 0.66-0.66 1.32-1 2 1-0.33 1.99-0.66 3-1-0.66-0.33-1.31-0.66-2-1zm66 13c-0.66 0.66-1.31 1.32-2 2h3c-0.32-0.66-0.66-1.32-1-2zm-21 7 4 1zm-12 2v1h8v-1h-8z" fill="#2C3036"/>
<path transform="translate(548 181)" d="m0 0c1.92 2.5 2.15 4.55 2.27 7.66-1.31 2.38-1.31 2.38-3 4h-2v2c-16.6 9.63-16.6 9.63-22 12l-2-1c-1.48 0.5-1.48 0.5-3 1-0.65 0.22-1.3 0.43-1.97 0.65-0.69 0.24-1.38 0.48-2.09 0.73-0.69 0.23-1.38 0.47-2.1 0.71-2.18 0.9-2.18 0.9-3.84 3.91-2.62 1.19-2.62 1.19-5 2 5.59 0.84 10.8 1.06 16.4 0.7 1.16-0.07 1.16-0.07 2.35-0.13 2.46-0.14 4.93-0.29 7.39-0.44 1.63-0.09 3.25-0.19 4.88-0.28 9.34-0.53 18.7-1.15 28-1.85-2 3-2 3-5.07 3.62-1.29 0.11-2.58 0.22-3.9 0.33-0.69 0.07-1.37 0.13-2.08 0.19-2.19 0.2-4.38 0.38-6.57 0.55-1.49 0.13-2.97 0.26-4.45 0.39-3.64 0.33-7.28 0.63-10.9 0.92v1c-31.5 1.9-31.5 1.9-40-1-2.33-0.14-2.33-0.14-4.68 0.19-0.94 0.11-1.88 0.22-2.85 0.33-5.17 0.72-10.3 1.53-15.5 2.38-2.32 0.38-4.65 0.75-6.99 1.1-0.66 0.11-1.32 0.21-2.01 0.32-7.04 0.94-14.1 0.84-21.2 0.81-2.21 0-4.43 0-6.65 0.01h-4.23c-1.91 0-1.91 0-3.85-0.01-3.03-0.13-3.03-0.13-5.03-1.13v-3c4.58-1.07 9.12-1.37 13.8-1.68 1.29-0.09 1.29-0.09 2.6-0.18 3.65-0.26 7.29-0.51 10.9-0.76 10.5-0.72 21.1-1.54 31.6-2.74 3.72-0.42 7.36-0.74 11.1-0.64 0.21-0.82 0.42-1.65 0.63-2.5 4.46-11.4 14.8-20 25.4-25.5 8.03-3.14 27.9-10.7 35.7-4.66zm-17.7 0.66v1h6v-1h-6zm-33 22c-2.33 2.47-2.33 2.47-4 5l1 3c18.1-4.9 35.5-10.6 50-23 0.96-2.07 0.96-2.07 1-4-1.06-1.28-1.06-1.28-3.56-1.16-16.9 0.79-32.8 7.87-44.4 20.2zm23-19 4 1zm-6 2-2 2 4-1-2-1zm30 3c-0.99 1.49-0.99 1.49-2 3 0.99-0.33 1.98-0.66 3-1l-1-2zm-40 3-1 2c0.99-0.33 1.98-0.66 3-1l-2-1zm-3 2c-1.63 1.96-1.63 1.96-3 4 3.13-1.3 3.13-1.3 5-4h-2zm39-1-2 2h3l-1-2zm-5.62 3.5c-0.46 0.5-0.91 0.99-1.38 1.5 1.98-0.34 1.98-0.34 4-1l1-2c-2.12-0.22-2.12-0.22-3.62 1.5zm-38.4 2.5c-0.99 1.49-0.99 1.49-2 3 0.99-0.33 1.98-0.66 3-1l-1-2zm3 12v1h5v-1h-5zm-5 1v1h5v-1h-5zm-8 2-5 1v1h6l-1-2zm-11 2v1h6v-1h-6zm-9 1v1h9v-1h-9zm-9 1v1h9v-1h-9z" fill="#292A2D"/>
<path transform="translate(592 29.9)" d="m0 0c2.48 0.13 2.48 0.13 4.48 2.13v4c-1.13-0.19-2.27-0.37-3.44-0.56-1.17-0.15-2.35-0.29-3.56-0.44l-1 1c-3.01 0.07-6.01 0.09-9.02 0.06-0.93 0-1.86-0.01-2.81-0.01-3.97-0.02-7.95-0.05-11.9-0.07-10.5-0.07-21-0.06-31.6 0.39-1.28 0.05-1.28 0.05-2.57 0.1-4.53 0.05-4.53 0.05-8.11 2.53-2.12 0.34-2.12 0.34-4.77 0.47-1.49 0.08-1.49 0.08-3 0.16-1.08 0.05-2.15 0.1-3.26 0.15-1.1 0.06-2.2 0.12-3.33 0.18-3.53 0.19-7.05 0.36-10.6 0.54-4.63 0.23-9.27 0.47-13.9 0.72-1.07 0.05-2.14 0.09-3.25 0.14-0.99 0.06-1.99 0.11-3.01 0.17-0.88 0.04-1.75 0.08-2.65 0.13-2.53 0.22-2.53 0.22-5.25 2.34-2.3 0.34-4.62 0.59-6.93 0.78-0.68 0.06-1.35 0.12-2.05 0.18-2.15 0.19-4.3 0.36-6.46 0.54-2.83 0.23-5.66 0.47-8.49 0.72-1.26 0.1-2.52 0.2-3.82 0.31-2.98 0.43-4.66 1.06-7.25 2.47-2 0.39-2 0.39-4.08 0.6-0.77 0.07-1.54 0.15-2.33 0.24-0.79 0.07-1.59 0.14-2.4 0.22-9.89 0.19-9.89 0.19-18.2 3.94-0.58-0.17-1.16-0.33-1.75-0.5-3.19-0.71-5.16 0.44-8.25 1.5-2.86 0.77-5.74 1.45-8.63 2.12-0.75 0.18-1.5 0.37-2.27 0.55-3.49 0.83-6.5 1.33-10.1 1.33l-1-3c3.05-2.04 4.96-2.6 8.5-3.37 1.1-0.24 2.21-0.49 3.35-0.74 1.18-0.25 2.37-0.51 3.59-0.77 1.21-0.26 2.42-0.53 3.67-0.8 28.1-6.08 28.1-6.08 41.6-7.93 2.35-0.28 2.35-0.28 4.34-1.39 2.36-0.35 4.72-0.66 7.09-0.94 1.05-0.13 1.05-0.13 2.12-0.26 2.24-0.27 4.49-0.54 6.73-0.8 2.24-0.27 4.47-0.54 6.71-0.81 1.4-0.17 2.79-0.33 4.18-0.49 2.87-0.35 5.42-0.78 8.17-1.7 1.63-0.22 3.26-0.4 4.9-0.56 1.01-0.1 2.02-0.19 3.06-0.29 1.1-0.1 2.2-0.2 3.34-0.31 1.16-0.11 2.32-0.21 3.52-0.32 3.83-0.35 7.66-0.69 11.5-1.02 1.31-0.12 2.61-0.23 3.95-0.35 26.8-2.32 53.6-3.14 80.5-3.14 1.91-0.01 3.83-0.07 5.74-0.14z" fill="#282A2E"/>
<path transform="translate(624,179)" d="m0 0c2 2 2 2 2.44 4.75-0.6 4.45-2.38 6.03-5.44 9.25l-3-2c-1.25 0.8-1.25 0.8-2.53 1.61-5.73 3.61-11.3 6.99-17.6 9.59-2.42 1.05-4.59 2.43-6.85 3.8-1.67 0.74-3.34 1.47-5.02 2.17-2.32 0.97-4.62 1.99-6.92 3.02-0.77 0.34-1.54 0.69-2.34 1.04-0.85 0.38-0.85 0.38-1.72 0.77 14.4 7.22 40.5-0.69 55.1-5.44 5.24-1.83 10.2-3.99 15-6.64 1.86-0.92 1.86-0.92 3.86-0.92-0.09 1.8-0.09 1.8-1 4-2.84 1.63-2.84 1.63-6.5 3.12-0.63 0.27-1.27 0.53-1.92 0.8-4.17 1.66-8.25 2.86-12.6 3.65-2.46 0.55-4.58 1.65-6.84 2.7-3.88 1.35-7.95 1.75-12 2.3-2.73 0.38-5.4 0.86-8.09 1.43v2c-4.15 0.09-8.29 0.14-12.4 0.19-1.16 0.02-2.33 0.05-3.53 0.07-6.97 0.06-12.6-0.56-19-3.26-0.99-0.33-1.98-0.66-3-1 0.9-8.96 5.52-16 12-22 12.1-9.85 34.1-19.1 50-15zm-16 2v1h7v-1h-7zm-31.9 18.8c-2.52 2.63-4.85 5.28-7.07 8.16l1 2c12.2-2.14 23.1-7.38 34-13.1 0.79-0.41 1.58-0.82 2.39-1.25 4.82-2.57 9.31-5.3 13.6-8.69v-2l2-1c-12.3-8.23-37.3 7.56-45.9 15.8zm20.9-15.8 4 1zm-8 3 8-1c-3.4-1.22-4.93-0.86-8 1zm31 1 1 2zm-33 0c-4.23 1.69-4.23 1.69-7 5 4.08-1.3 4.08-1.3 8-3l-1-2zm-10 6-1 2c0.99-0.33 1.98-0.66 3-1l-2-1zm-11 11 1 3zm28 12v1h6v-1h-6z" fill="#26292D"/>
<path transform="translate(850,195)" d="m0 0c3.06 3.34 3.27 6.65 4 11 1.8 3.76 3.13 5.48 7 7 2.58 0.29 2.58 0.29 5.35 0.23 1.02 0 2.03 0 3.08-0.01 1.58-0.01 1.58-0.01 3.19-0.03h3.22c5.25 0.2 5.25 0.2 10.2-1.19 2.12 0.44 2.12 0.44 4 1l1-2c3-1 3-1 7-1l2-2h4l1-2 1 1c1.67 0.04 3.33 0.04 5 0-8.46 8.46-30.6 11.9-42.2 12-6.26-0.38-11.3-1.3-15.7-6.11-5.36-6.59-5.36-6.59-6.12-10.9-5.21-1.46-7.62-0.13-12.2 2.32-4 2.42-7.71 5.17-11.4 8.01-2.35 1.67-2.35 1.67-5.35 2.67-1.67 1.5-1.67 1.5-3 3-2.32-3.48-2.08-4.93-2-9-0.5-1.49-0.5-1.49-1-3-0.96 0.39-0.96 0.39-1.93 0.79-29.1 11.5-29.1 11.5-39.1 11.2l1-2c1.33-0.33 2.67-0.67 4-1l1-2 5 1 1-2c2.21-0.56 2.21-0.56 4.94-1 3.98-0.55 3.98-0.55 7.06-3l2 1 1-2c1.86-1.04 3.77-2.01 5.69-2.94 1.03-0.5 2.07-1.01 3.13-1.52 1.05-0.51 2.1-1.02 3.18-1.54 1.07-0.57 2.15-1.14 3.25-1.72 2.75-1.28 2.75-1.28 5-0.78 2.22 1.9 2.75 3.79 3.75 6.5 0.95-0.63 1.91-1.25 2.89-1.9 1.26-0.82 2.53-1.65 3.8-2.48 0.62-0.41 1.25-0.82 1.89-1.24 6.5-4.22 11.6-6.69 19.4-4.38zm-16 5-2 2h3l-1-2zm-15 4 1 3z" fill="#2A2C30"/>
<path transform="translate(495,146)" d="m0 0c0.04 1.67 0.04 3.33 0 5-1.66 1.66-3.64 1.15-5.92 1.18-43.1 0.83-86 7.74-128 16.8l1-5c42.4-11.4 89.2-18.5 133-18z" fill="#1F2023"/>
<path transform="translate(1102 189)" d="m0 0c2.12 2.31 2.12 2.31 2.38 4.81-0.09 0.83-0.17 1.65-0.26 2.5 0.3 1.35 0.61 2.68 1 4-2.37-0.19-2.37-0.19-5-1-1.31-2.56-1.31-2.56-2-5-5.77-0.46-8.46 0.45-13 4-0.88 0.62-1.77 1.24-2.68 1.88-2.69 2.47-3.93 4.76-5.32 8.12v2c1.88-1.08 3.76-2.16 5.63-3.25 1.1-0.63 2.19-1.26 3.32-1.92 2.3-1.37 4.38-2.77 6.49-4.39 2.56-1.44 2.56-1.44 5-1 2.56 1.56 2.56 1.56 5.69 4 7.07 5.19 16.3 6.58 24.9 5.56 10.4-1.73 19.3-5.2 28.6-10.1 5.77-2.96 5.77-2.96 9.44-2.67 0.64 0.25 1.28 0.5 1.94 0.76-0.32 0.66-0.66 1.32-1 2h-3c-0.66 0.66-1.31 1.32-2 2-1.86 0.71-3.73 1.42-5.61 2.09-2.56 0.98-4.98 2.15-7.45 3.35-13.7 6.26-26.6 8.87-40.9 3.56-0.66-0.33-1.31-0.66-2-1v-2c-0.53-0.1-1.07-0.2-1.62-0.31-2.38-0.69-2.38-0.69-5.31-2.38-2.92-1.6-2.92-1.6-5.57-0.74-2.92 1.68-5.69 3.55-8.5 5.43-7.86 5.22-7.86 5.22-12.6 4.31-0.8-0.43-1.61-0.86-2.44-1.31 1.18-7.72 3.23-12.9 9.34-17.9 6.7-4.88 14.4-10.1 22.5-5.39zm-11.9 1.31 4 1zm-3 1c-0.32 0.66-0.66 1.32-1 2 1-0.33 1.99-0.66 3-1-0.66-0.33-1.31-0.66-2-1z" fill="#282A2D"/>
<path transform="translate(1243,185)" d="m0 0c2 1 2 1 3.38 3.94 1.77 3.34 2.18 3.85 5.62 5.06 3.28 0.24 3.28 0.24 6.75 0.12 1.17-0.01 2.34-0.03 3.55-0.05 0.89-0.02 1.78-0.05 2.7-0.07 0.19 5.51-0.92 8.96-3 14l-5-1 1-5c-7.31-0.72-11.4 0.81-17.6 4.59-2.7 1.6-5.4 2.42-8.38 3.41-0.49-0.99-0.49-0.99-1-2-3.99 0.42-7.33 1.47-11 3-3.71 1.54-7.02 2.41-11 3-1.3 0.48-2.6 0.97-3.89 1.47-5.87 1.98-11.6 2.24-17.8 2.47-1.1 0.07-2.2 0.13-3.34 0.2-8.96 0.38-8.96 0.38-12.7-1.95-0.74-0.72-1.47-1.44-2.23-2.19v-3c0.65 0.49 1.29 0.97 1.96 1.47 4.01 2.02 7.24 2.03 11.7 1.97 0.84-0.01 1.68-0.02 2.54-0.03 19-0.51 37.9-6.89 54.8-15.4h2c-0.16-0.6-0.31-1.21-0.47-1.83-0.2-0.8-0.39-1.6-0.59-2.42-0.2-0.79-0.4-1.58-0.6-2.39-0.36-2.5-0.25-4.02 0.66-6.36l2-1zm0 2 1 2z" fill="#2B2E32"/>
<path transform="translate(663,151)" d="m0 0h4c-0.57 4.25-2.08 7.03-4.38 10.6-3.03 5.02-4.8 9.58-6.01 15.3-0.2 0.69-0.4 1.37-0.61 2.08-0.99 0.5-0.99 0.5-2 1v16c2.1 0.03 2.1 0.03 4.25 0.06 1.18 0.02 1.18 0.02 2.39 0.04 2.27-0.1 4.19-0.47 6.36-1.1l-1 3c-1.81 0.85-1.81 0.85-4 1.62-2.21 0.92-2.21 0.92-4 2.38-1.05 3.01-1.09 5.83-1 9v3c-0.84-1.12-1.67-2.25-2.5-3.38-0.46-0.62-0.93-1.25-1.41-1.89-1.09-1.73-1.09-1.73-1.09-3.73-0.54 0.23-1.08 0.46-1.63 0.7-2.48 1.06-4.96 2.12-7.43 3.18-0.85 0.36-1.7 0.72-2.57 1.1-13.8 5.85-13.8 5.85-18.4 4.02 2.89-1.93 4.63-2.52 7.94-3.31 6.29-1.63 12.1-4.07 18.1-6.69-0.01-0.66-0.02-1.31-0.03-1.99-0.04-2.96-0.07-5.92-0.09-8.89-0.02-1.03-0.04-2.06-0.06-3.12 0-0.99-0.01-1.98-0.02-2.99-0.01-0.91-0.02-1.82-0.03-2.76 0.23-2.25 0.23-2.25 2.23-4.25 0.43-1.74 0.79-3.49 1.12-5.25 2.08-8.87 6.87-16.2 11.9-23.8zm-14 31v5h1v-5h-1zm8 16 1 2z" fill="#2E3A46"/>
<path transform="translate(954,218)" d="m0 0c0.99 0.5 0.99 0.5 2 1 3.5 12.1-4.56 28.7-10.2 39.3-1.83 3.27-3.76 6.48-5.76 9.66h-2c-0.09 0.72-0.18 1.45-0.27 2.2-0.87 3.33-2.21 5.05-4.42 7.68-0.73 0.87-1.46 1.74-2.21 2.64-0.69 0.82-1.39 1.64-2.1 2.48-0.73 0.93-0.73 0.93-1.48 1.89-9.11 11.4-23.3 21.5-37.5 25.1-2.82 0.1-2.82 0.1-5 0 2.19-2.19 3.46-2.61 6.38-3.5 2.36-0.73 4.48-1.42 6.66-2.59 1.96-0.91 1.96-0.91 5.96-0.91 0.5-1.49 0.5-1.49 1-3 1.35-0.9 2.7-1.79 4.07-2.66 7.79-5.42 15.2-12.7 20.9-20.3v-3l2-1c0.5-0.99 0.5-0.99 1-2h2c0.19-0.91 0.19-0.91 0.38-1.84 1.44-6.16 3.63-11.4 6.56-17 5.05-9.67 7.82-19.5 9.57-30.3 0.49-1.89 0.49-1.89 2.49-3.89zm-13 41v3z" fill="#2D3C49"/>
<path transform="translate(218,146)" d="m0 0c-0.14 0.88-0.29 1.77-0.44 2.68-1.42 9.22-2.61 18.1-0.56 27.3h2c0.16 0.87 0.33 1.73 0.5 2.62 2.1 4.72 5.25 6.63 9.5 9.38 0.86 0.59 0.86 0.59 1.73 1.2 4.76 3.05 9.73 3.95 15.3 4.8 0.04 1.67 0.04 3.33 0 5l-1 1c-8.94-0.15-16.7-3.23-23.5-9.19-3.66-3.93-6.42-7.42-7.53-12.8h-2c-3.85-10.4-2.13-21.4 0-32 3-1 3-1 6 0z" fill="#2E3D4B"/>
<path transform="translate(548 181)" d="m0 0c1.92 2.5 2.15 4.55 2.27 7.66-1.31 2.38-1.31 2.38-3 4h-2v2c-16.6 9.63-16.6 9.63-22 12l-2-1c-2.29 0.77-4.55 1.58-6.81 2.44-0.71 0.27-1.42 0.53-2.16 0.8-1.62 0.61-3.23 1.25-4.84 1.89-4.67 1.28-9.37 1.55-14.2 1.87l1-2c2.5-0.8 4.97-1.51 7.5-2.18 14.8-4.16 32.4-9.57 42.5-21.8v-2c-6.69 0.53-13.4 1.11-20 2v-2c-11.5 2.31-22.3 9.21-30 18l-2-1c9.53-10.4 40.7-32.3 55.7-20.7zm-17.7 0.66v1h6v-1h-6zm14 8c-0.99 1.49-0.99 1.49-2 3 0.99-0.33 1.98-0.66 3-1l-1-2zm-4 4-2 2h3l-1-2zm-5.62 3.5c-0.46 0.5-0.91 0.99-1.38 1.5 1.98-0.34 1.98-0.34 4-1l1-2c-2.12-0.22-2.12-0.22-3.62 1.5z" fill="#212225"/>
<path transform="translate(936,263)" d="m0 0c1.16 3.48 0.71 5.46 0 9l-4-1v3l-2 1c-0.39 0.68-0.78 1.36-1.19 2.06-4.27 6.93-10.3 13.1-16.8 17.9h-2l-1 3c-1.79 1.25-1.79 1.25-4.06 2.44-0.82 0.43-1.63 0.85-2.47 1.29-0.81 0.42-1.63 0.84-2.47 1.27-0.7 0.38-1.41 0.75-2.13 1.14-7.3 3.83-13.7 5.23-21.9 4.74-1.17-0.04-1.17-0.04-2.36-0.08-5.24-0.28-8.41-1.36-12.6-4.8-1.38-2.25-1.38-2.25-2-4h-2c-1.86-3.13-2.2-5.37-2-9 0.52 0.7 1.03 1.4 1.56 2.12 4.42 5.22 9.39 10.4 16.4 11.2 18.8 0.21 32.8-7.45 46-20.3 0.61-0.56 1.23-1.13 1.86-1.71 5.72-5.39 11.6-12.2 15.1-19.3z" fill="#010204"/>
<path transform="translate(374,89)" d="m0 0c1.5 1.12 1.5 1.12 3 3 0.58 4.29-0.34 7.16-2.14 11-3.45 7.89-4.97 16.6-6.86 25-1.78 7.57-1.78 7.57-3 10h-2l-1 4c-1.56-1.12-1.56-1.12-3-3 0.46-4.02 1.45-7.85 2.5-11.8 1.25-4.82 1.93-9.42 2.19-14.4 0.1-0.61 0.21-1.23 0.31-1.86l2-1c0.58-2.13 1.06-4.28 1.5-6.44 1.28-6.34 1.28-6.34 3.5-8.56 0.69-1.66 1.36-3.32 2-5l1-1zm0 7 1 3z" fill="#2D3B48"/>
<path transform="translate(624,179)" d="m0 0c2 2 2 2 2.44 4.75-0.6 4.45-2.38 6.03-5.44 9.25l-3-2c-1.25 0.8-1.25 0.8-2.53 1.61-5.73 3.61-11.3 6.99-17.6 9.59-2.42 1.05-4.59 2.43-6.85 3.8-15.2 7-15.2 7-22 7-0.5-1.49-0.5-1.49-1-3 0.65-0.11 1.3-0.21 1.97-0.32 15.2-3.42 42.1-12.2 51-25.7-3.81-0.98-6.49-0.91-10.3-0.06-3.36 0.67-6.46 1.19-9.88 1.12-4.07-0.06-7.78 0.36-11.8 0.94 2.31-2.31 3.77-2.68 6.88-3.56 0.86-0.25 1.72-0.5 2.61-0.76 17.5-4.77 17.5-4.77 25.5-2.68zm-16 2v1h7v-1h-7zm12 7 1 2z" fill="#1D1E21"/>
<path transform="translate(705 131)" d="m0 0c1.7 1.26 1.7 1.26 2.31 3.43 0.05 0.81 0.09 1.62 0.14 2.46 0.06 0.81 0.11 1.63 0.17 2.47 0.03 0.63 0.05 1.26 0.08 1.9l-4 1c-0.08-0.62-0.17-1.24-0.25-1.87-0.58-2.21-0.58-2.21-2.31-3.44-7.07-2-13.2 1.21-19.4 4.41-4.12 2.58-7.41 5.74-10.8 9.24-2.25 1.66-2.25 1.66-5.04 1.42-0.73-0.25-1.46-0.5-2.21-0.76 8.67-13.3 24.6-25.6 41.3-20.3z" fill="#232427"/>
<path transform="translate(1165,201)" d="m0 0h2c0.01 0.66 0.03 1.33 0.04 2.01 0.26 4.67 0.4 7.27 3.34 11 3.95 2.92 6.82 3.05 11.6 2.94v2h2v-2c1.46-0.03 2.92-0.05 4.38-0.06 0.81-0.01 1.62-0.03 2.46-0.04 2.16 0.1 2.16 0.1 4.16 1.1v-2h2v2c1.77-0.42 3.54-0.87 5.31-1.31 0.99-0.25 1.97-0.49 2.99-0.74 2.74-0.97 3.79-1.85 5.7-3.95h2v2c1.77-0.59 3.54-1.2 5.31-1.81 0.99-0.34 1.97-0.68 2.99-1.02 2.61-1.13 3.79-2.16 5.7-4.17 2.19 0.31 2.19 0.31 4 1l-1 3c-2.74 1.16-5.36 2.11-8.19 3-0.81 0.26-1.62 0.52-2.45 0.79-7.04 2.22-14.1 3.92-21.4 5.21-1.28 0.23-2.56 0.45-3.88 0.69-20.1 2-20.1 2-28.1-3.69-2.56-2.19-2.56-2.19-4-5-0.11-3.11 0.16-6 1-9l2-2z" fill="#2B2E32"/>
<path transform="translate(857,266)" d="m0 0 2 1c-0.43 1.16-0.43 1.16-0.88 2.35-3.53 10.3-5.04 20.2-1.12 30.6h2c0.56 0.76 1.11 1.53 1.69 2.31 2.9 3.37 5.07 4.37 9.31 5.69 2.3 0.11 4.55 0.06 6.84-0.03 2.97 0.04 5.43 0.91 8.16 2.03v1c-18.2 1.01-18.2 1.01-26-5-5.74-5.42-10.2-11-11-19 0.29-2.78 0.66-5.39 1.19-8.12 0.11-0.71 0.23-1.41 0.34-2.13 0.83-4.44 1.89-6.96 5.47-9.75l2-1z" fill="#2E3C4A"/>
<path transform="translate(1358,197)" d="m0 0v2c-0.7 0.1-1.4 0.21-2.12 0.31-3.27 0.78-5.9 2.17-8.88 3.69h-2v2c-0.64 0.25-1.28 0.51-1.94 0.77-5.91 2.35-5.91 2.35-11.8 4.85-3.39 1.42-6.77 2.39-10.3 3.38-1.29 0.51-2.59 1.03-3.88 1.56-3.73 1.46-7.24 1.9-11.2 2.13-2.12 0.16-2.12 0.16-3.88 2.31-2.09 0.39-2.09 0.39-4.65 0.6-0.92 0.08-1.84 0.16-2.8 0.24-0.96 0.07-1.93 0.15-2.93 0.22-1.9 0.16-3.8 0.31-5.71 0.48-0.84 0.06-1.69 0.13-2.56 0.19-2.2 0.25-4.21 0.73-6.35 1.27-6.13 0.49-9.09 0.09-14-4l-2-3c0.76 0.31 1.53 0.62 2.31 0.94 21.8 8.6 55.1-4.43 75.3-13 4.62-2.03 8.98-4.36 13.3-7.04 2.5-1.11 3.58-0.88 6.09 0.07z" fill="#000002"/>
<path transform="translate(1168,197)" d="m0 0-1 2h-3l-2 2c-1.87 0.71-3.73 1.42-5.62 2.09-2.56 0.98-4.98 2.15-7.44 3.35-13.7 6.26-26.6 8.87-40.9 3.56l-2-1v-2c-0.54-0.1-1.07-0.21-1.62-0.31-2.38-0.69-2.38-0.69-5.32-2.38-2.91-1.6-2.91-1.6-5.56-0.75-1.81 1.04-3.58 2.16-5.31 3.32-3.59 2.39-7.3 4.26-11.2 6.12v-3c2.41-1.68 2.41-1.68 5.62-3.44 3.44-1.89 6.72-3.72 9.82-6.12 2.56-1.44 2.56-1.44 5-1 2.56 1.56 2.56 1.56 5.68 4 7.08 5.18 16.3 6.58 24.9 5.56 10.4-1.73 19.3-5.2 28.6-10.1 7.03-3.61 7.03-3.61 11.4-1.91z" fill="#000002"/>
<path transform="translate(354,165)" d="m0 0v5h-3v2c-1.83 0.61-3.66 1.22-5.49 1.83-1.6 0.53-3.21 1.07-4.82 1.61-4.24 1.41-8.5 2.83-12.8 4.22-0.81 0.27-1.62 0.54-2.45 0.81-1.55 0.51-3.1 1.02-4.65 1.52-2.79 0.93-5.49 1.83-8.1 3.18-1.74 0.83-1.74 0.83-5.74 0.83 0.14-2.32 0.14-2.32 1-5 2.39-1.55 2.39-1.55 5.69-2.88 0.6-0.24 1.2-0.48 1.83-0.73 12.5-4.91 25.6-8.54 38.5-12.4z" fill="#1F2124"/>
<path transform="translate(377,56)" d="m0 0c-0.72 1.93-0.72 1.93-2 4-2.09 0.76-2.09 0.76-4.5 1.12-3.67 0.53-3.67 0.53-6.5 2.88-2.04 0.65-2.04 0.65-4.54 1.22-0.91 0.21-1.82 0.42-2.76 0.64-0.95 0.21-1.91 0.42-2.89 0.64-1.87 0.43-3.73 0.85-5.6 1.28-0.89 0.2-1.79 0.41-2.7 0.61-2.22 0.54-4.38 1.16-6.56 1.83-2.95 0.78-2.95 0.78-4.95-0.22v2c-5.44 1.48-5.44 1.48-11 3l-1-3c3.32-2.12 6.43-3.64 10.2-4.83 1-0.32 2-0.64 3.03-0.97 1.07-0.34 2.13-0.67 3.23-1.01 1.64-0.52 1.64-0.52 3.32-1.05 7.51-2.34 15-4.59 22.6-6.7 0.92-0.27 1.85-0.53 2.8-0.8 0.86-0.23 1.71-0.47 2.59-0.71 0.75-0.2 1.5-0.41 2.27-0.62 1.96-0.31 1.96-0.31 4.96 0.69z" fill="#26282B"/>
<path transform="translate(851,203)" d="m0 0c1.94 1.76 3.14 3.26 4.44 5.56 1.75 2.74 2.59 3.29 5.56 4.44 2.58 0.29 2.58 0.29 5.35 0.23 1.02 0 2.03 0 3.08-0.01s2.11-0.02 3.19-0.03h3.22c5.25 0.2 5.25 0.2 10.2-1.19 2.12 0.44 2.12 0.44 4 1l1-2c3-1 3-1 7-1l2-2h4l1-2 1 1c1.67 0.04 3.33 0.04 5 0-8.46 8.46-30.6 11.9-42.2 12-5.12-0.31-9.59-0.93-13.8-4.05-2.21-2.88-4.15-5.87-6-9l2-3z" fill="#2B2F35"/>
<path transform="translate(818 199)" d="m0 0c0.54 0.39 1.07 0.78 1.62 1.19-0.67 5.26-2.24 10-4 15 0.66 0.33 1.33 0.66 2 1l-4 2c-0.06-0.62-0.12-1.23-0.18-1.87-0.08-0.8-0.17-1.61-0.25-2.44-0.08-0.81-0.16-1.61-0.25-2.43-0.27-2.42-0.27-2.42-1.32-5.26-0.95 0.39-0.95 0.39-1.93 0.78-29.1 11.5-29.1 11.5-39.1 11.2 0.34-0.66 0.66-1.32 1-2 1.34-0.34 2.67-0.67 4-1 0.34-0.66 0.66-1.32 1-2l5 1c0.34-0.66 0.66-1.32 1-2 2.22-0.57 2.22-0.57 4.94-1 3.99-0.56 3.99-0.56 7.06-3 0.66 0.33 1.33 0.66 2 1 0.34-0.66 0.66-1.32 1-2 1.87-1.04 3.77-2.01 5.69-2.94 1.04-0.5 2.07-1.01 3.14-1.53 1.05-0.5 2.1-1.01 3.17-1.53 1.08-0.58 2.15-1.15 3.25-1.74 2.75-1.26 2.75-1.26 5.13-0.45z" fill="#2B2C2F"/>
<path transform="translate(951,212)" d="m0 0c0.5 1.49 0.5 1.49 1 3-11.5 4.51-23.1 8.79-34.8 12.6-11.6 3.82-22.3 9.31-32.9 15.3-2.32 1.17-2.32 1.17-4.32 1.17v2c-1.3 0.58-1.3 0.58-2.63 1.18-3.63 1.96-6.25 4.19-9.25 7.01-0.49 0.46-0.99 0.92-1.5 1.4-1.21 1.13-2.42 2.27-3.62 3.41l-2-1c7.05-7.91 15-13.5 24-19 1.09-0.67 2.19-1.34 3.32-2.02 19.5-11.1 41.5-17.9 62.7-25z" fill="#000002"/>
<path transform="translate(820,196)" d="m0 0v2c-1.23 0.45-1.23 0.45-2.49 0.92-5.34 2-10.6 4.01-15.6 6.64-7.33 3.78-14.9 6.48-23 7.95-2.19 0.46-2.19 0.46-4.88 2.49-7.15 1.51-14.8 1.1-22.1 1.12-0.94 0.01-1.88 0.01-2.85 0.02-0.89 0-1.78-0.01-2.69-0.01h-2.42c-1.98-0.13-1.98-0.13-3.98-1.13v-2h-2c0.5-1.49 0.5-1.49 1-3 0.48 0.49 0.97 0.97 1.46 1.47 3.61 2.17 7.02 2.02 11.1 1.97 1.26-0.02 1.26-0.02 2.55-0.03 20.2-0.54 41-7.46 58.6-17.4 2.63-1.16 4.5-1.23 7.34-1.03z" fill="#000002"/>
<path transform="translate(649,200)" d="m0 0c-0.09 1.8-0.09 1.8-1 4-2.84 1.63-2.84 1.63-6.5 3.12-0.63 0.27-1.27 0.53-1.92 0.8-4.17 1.66-8.25 2.86-12.6 3.65-2.46 0.55-4.58 1.65-6.84 2.7-3.88 1.35-7.95 1.75-12 2.3-2.98 0.38-2.98 0.38-5.46 0.94-4.52 0.84-9.05 0.72-13.6 0.74-0.98 0.02-1.97 0.04-2.98 0.06-8.92 0.05-8.92 0.05-13-3.31 3.16-0.95 5.87-1.07 9.16-0.96 22.1 0.53 43.3-2.42 63-13.1 1.86-0.92 1.86-0.92 3.86-0.92z" fill="#000002"/>
<path transform="translate(1242,199)" d="m0 0v3c-4.76 2.07-9.55 4.04-14.4 5.95-1.76 0.71-3.52 1.43-5.27 2.16-4.5 1.87-8.51 3.17-13.4 3.89-1.3 0.48-2.6 0.97-3.89 1.47-5.87 1.98-11.6 2.24-17.8 2.47-1.65 0.1-1.65 0.1-3.34 0.2-8.96 0.38-8.96 0.38-12.7-1.95-0.74-0.72-1.47-1.44-2.23-2.19v-3c0.65 0.49 1.29 0.97 1.96 1.47 4.01 2.02 7.24 2.03 11.7 1.97 0.84-0.01 1.68-0.02 2.54-0.03 19.7-0.53 39-15.4 56.8-15.4z" fill="#000002"/>
<path transform="translate(737,197)" d="m0 0-1 3h-4c-1.82 0.86-3.64 1.73-5.43 2.66-17.6 9.14-37.3 18.1-57.6 13-4.66-1.56-7.67-4.1-11-7.66l1-3c0.68 0.76 1.36 1.53 2.06 2.31 6.41 5.87 13.4 6.85 21.9 6.69 17.5-2.14 33-8.92 48.3-17.3 2.22-0.98 3.45-0.54 5.68 0.26z" fill="#000002"/>
<path transform="translate(486,217)" d="m0 0c-2.5 2.5-3.89 2.5-7.35 3.04-1.08 0.16-2.16 0.33-3.27 0.51-1.14 0.17-2.27 0.34-3.44 0.51-1.11 0.18-2.22 0.35-3.36 0.53-3.19 0.49-6.38 0.96-9.58 1.41-0.74 0.11-1.47 0.23-2.23 0.34-7.73 1.05-15.6 0.77-23.3 0.72-1.5 0-3-0.01-4.5-0.01-3.65-0.01-7.29-0.03-10.9-0.05l1-3c30.7-2.13 30.7-2.13 35 0v-2c0.69 0.02 1.38 0.05 2.1 0.07 7.32 0.14 14.3-0.54 21.6-1.63 2.84-0.37 5.49-0.53 8.35-0.44z" fill="#2B2C2F"/>
<path transform="translate(923,196)" d="m0 0c-1.25 3.76-2.9 4.25-6.32 5.96-0.72 0.34-1.44 0.69-2.18 1.04-0.74 0.36-1.47 0.71-2.23 1.08-5.01 2.4-9.88 4.55-15.3 5.92-0.6 0.16-1.21 0.33-1.83 0.5-8.64 2.32-17 3.88-26 3.94-0.75 0.01-1.5 0.02-2.26 0.03-4.46-0.07-7.39-0.72-10.9-3.47-1.31-2.19-1.31-2.19-2-4 3 0 3 0 5.24 1.96 5.31 3.92 12.4 2.77 18.8 2.04 14-2.34 28.5-7.53 41.1-14.1 1.87-0.89 1.87-0.89 3.87-0.89z" fill="#000002"/>
<path transform="translate(942,261)" d="m0 0c0.5 0.99 0.5 0.99 1 2-1.31 2.62-1.31 2.62-3 5h-2c-0.13 1.09-0.13 1.09-0.27 2.2-0.87 3.33-2.21 5.05-4.42 7.68-0.73 0.87-1.46 1.74-2.21 2.64-0.69 0.82-1.39 1.64-2.1 2.48-0.49 0.62-0.97 1.25-1.48 1.89-9.11 11.4-23.3 21.5-37.5 25.1-2.82 0.1-2.82 0.1-5 0 2.19-2.19 3.46-2.61 6.38-3.5 2.36-0.73 4.48-1.42 6.66-2.59 1.96-0.91 1.96-0.91 5.96-0.91l1-3c1.35-0.9 2.7-1.79 4.07-2.66 7.79-5.42 15.2-12.7 20.9-20.3v-3l2-1 1-2h2l2-7c0.99 0.33 1.98 0.66 3 1l2-4z" fill="#2E3944"/>
<path transform="translate(486,214)" d="m0 0v2c-14.8 2.53-29.6 3.8-44.6 4.62-3.19 0.19-6.38 0.37-9.56 0.56-1.96 0.11-3.93 0.22-5.89 0.33-0.87 0.05-1.75 0.1-2.65 0.15-0.77 0.04-1.54 0.08-2.33 0.13-2.21 0.16-2.21 0.16-5.01 1.21v-3c4.57-1.07 9.12-1.37 13.8-1.68 1.29-0.09 1.29-0.09 2.6-0.19 3.64-0.25 7.29-0.5 10.9-0.75 10.6-0.73 21.1-1.55 31.6-2.75 3.72-0.42 7.36-0.74 11.1-0.63z" fill="#000002"/>
<path transform="translate(565,205)" d="m0 0c0.55 2.08 1 3.84 1 6 4.46 0.99 4.46 0.99 9 2v3c0.99 0.33 1.98 0.66 3 1v2h2v-2c2.21-0.03 4.42-0.05 6.62-0.06 1.23-0.01 2.46-0.03 3.73-0.04 3.33 0.09 6.39 0.46 9.65 1.1v2c-4.15 0.09-8.29 0.14-12.4 0.19-1.16 0.02-2.33 0.05-3.53 0.07-6.97 0.06-12.6-0.56-19-3.26-0.99-0.33-1.98-0.66-3-1 0.55-3.95 1.39-7.35 3-11z" fill="#282B2E"/>
<path transform="translate(562,213)" d="m0 0c-2 3-2 3-5.31 3.7-1.56 0.16-3.13 0.3-4.69 0.42-0.87 0.08-1.74 0.16-2.63 0.24-17.4 1.36-34.9 1.34-52.4 1.64l-1-2c4.07-1.44 6.22-2.11 10.6-1.5 4.39 0.58 8.57 0.47 13 0.2 1.19-0.07 1.19-0.07 2.4-0.14 1.66-0.09 3.32-0.18 4.98-0.28 2.52-0.15 5.04-0.29 7.57-0.43 1.62-0.09 3.24-0.19 4.87-0.28 0.74-0.04 1.48-0.08 2.25-0.13 3.57-0.21 7.11-0.51 10.7-0.97 3.28-0.42 6.38-0.55 9.68-0.47z" fill="#000002"/>
<path transform="translate(1307,268)" d="m0 0c1.08 3.37 0.93 4.3 0 8h15v3h-14v8l16 1v3c-2.44 0.03-4.87 0.05-7.31 0.06-0.69 0.01-1.38 0.02-2.09 0.03-3.15 0.01-5.59-0.09-8.6-1.09-0.94-7.04-1.11-13.9-1-21l2-1z" fill="#30404F"/>
<path transform="translate(221,182)" d="m0 0c0.5 0.39 0.99 0.77 1.5 1.17 7.78 5.96 13.7 9.33 23.5 10.8 0.04 1.67 0.04 3.33 0 5l-1 1c-8.12-0.13-14-3.11-21-7l1-3c-1.36-2.54-1.36-2.54-3-5l-1-3z" fill="#2C3035"/>
<path transform="translate(1354,198)" d="m0 0 3 2c-1.21 3.62-2.53 4.09-5.81 5.75-0.68 0.33-1.36 0.66-2.07 1-0.7 0.34-1.4 0.69-2.12 1.04-5.64 2.7-11.4 5.06-17.2 7.27-0.81 0.31-1.62 0.62-2.45 0.94-0.77 0.28-1.53 0.56-2.32 0.85-1.01 0.37-1.01 0.37-2.04 0.75-2.28 0.47-3.74 0.12-5.94-0.6 0.64-0.27 1.28-0.54 1.94-0.81 2.39-1.08 2.39-1.08 3.06-4.19 0.61-0.06 1.23-0.12 1.86-0.18 1.22-0.13 1.22-0.13 2.45-0.26 0.8-0.08 1.6-0.16 2.43-0.24 3.79-0.53 5.72-1.54 8.26-4.32 0.99 0.33 1.98 0.66 3 1l1-2c1.81-1 1.81-1 4-2 0.68-0.35 1.36-0.7 2.06-1.06 1.94-0.94 1.94-0.94 4.94-1.94l2-3z" fill="#2B2C2F"/>
<path transform="translate(1013,196)" d="m0 0c0.5 1.98 0.5 1.98 1 4-0.97-0.23-1.94-0.45-2.94-0.69-4.02-0.57-6.88 0.41-10.6 1.8-5.65 2.07-11.5 3.43-17.4 4.86-0.69 0.17-1.37 0.34-2.08 0.51-1.4 0.35-2.8 0.69-4.19 1.03-4.44 1.1-8.71 2.44-13 3.96-2.3 0.69-4.39 0.76-6.77 0.53 1-2 1-2 2.66-2.68 1.08-0.31 1.08-0.31 2.18-0.62 0.82-0.23 1.63-0.46 2.47-0.7 0.89-0.25 1.78-0.5 2.69-0.75 0.92-0.26 1.83-0.52 2.77-0.78 2.93-0.83 5.86-1.65 8.79-2.47 1.95-0.55 3.91-1.1 5.86-1.66 23.6-6.65 23.6-6.65 28.6-6.34z" fill="#000002"/>
<path transform="translate(620,186)" d="m0 0c0.5 0.99 0.5 0.99 1 2-5.8 6.51-15.2 10.9-23.2 14.2-2.42 1.05-4.59 2.43-6.85 3.8-15.2 7-15.2 7-22 7l-1-3c0.65-0.11 1.3-0.21 1.97-0.32 11.7-2.62 22.8-7.78 33.3-13.3 0.87-0.46 1.74-0.91 2.63-1.38 4.99-2.68 9.58-5.6 14.1-9z" fill="#000002"/>
<path transform="translate(1164,198)" d="m0 0c0.99 0.33 1.98 0.66 3 1v2c-0.47 0.45-0.95 0.91-1.44 1.38-1.78 1.85-2.13 3.12-2.56 5.62-0.99-0.33-1.98-0.66-3-1h2v-2c-3.8 0.97-3.8 0.97-7 3-1.67 0.04-3.33 0.04-5 0v2c-2.54 0.87-5.08 1.72-7.62 2.56-0.72 0.25-1.43 0.5-2.17 0.75-4.45 1.45-7.54 1.92-12.2 0.69l2-1v-2c2.97 0.5 2.97 0.5 6 1l1-2c2-0.33 4-0.67 6-1l1-2 4 1 1-2 2-1c0.99 0.33 1.98 0.66 3 1 0.08-0.63 0.16-1.25 0.25-1.89 0.75-2.11 0.75-2.11 2.56-3.12 1.09-0.34 1.09-0.34 2.19-0.68 2.75-0.74 2.75-0.74 5-2.31z" fill="#2B2E32"/>
<path transform="translate(679,184)" d="m0 0v2h3c-1.35 4.04-3.96 5.17-7.44 7.25-0.6 0.38-1.2 0.75-1.81 1.14-1.54 0.94-3.14 1.78-4.75 2.61l-2-1c-3.02-0.1-3.02-0.1-6 0.62-3 0.38-3 0.38-6-1.62 0.58-0.21 1.17-0.42 1.77-0.63 6.32-2.38 11.9-5.42 17.7-8.98 2.57-1.39 2.57-1.39 5.57-1.39z" fill="#2E3944"/>
<path transform="translate(228,124)" d="m0 0 4 2c-1.77 3.14-3.73 5.98-5.94 8.81-2.13 2.77-3.77 5.46-5.25 8.63-1.81 3.56-1.81 3.56-4.81 4.56-1.15-1.68-1.15-1.68-2-4 2.64-7.83 8.33-14.2 14-20z" fill="#28343F"/>
<path transform="translate(1258,206)" d="m0 0h2c1 3 1 3 1 5 0.79 4.25 1.42 6.46 4.62 9.44 4.22 1.95 6.79 1.88 11.4 1.56l1 3c-11.9 1.76-11.9 1.76-17-2-3.81-3.33-3.81-3.33-5-6-0.16-3.44 0.21-6.65 1-10l1-1z" fill="#2B2F34"/>
<path transform="translate(543,189)" d="m0 0v3c-8.61 8.32-21.7 14.4-33 18-0.89 0.35-1.77 0.7-2.69 1.06-4.71 1.34-9.44 1.61-14.3 1.94l1-2c2.5-0.81 4.97-1.52 7.5-2.19 15.3-4.29 28.8-10.2 41.5-19.8z" fill="#000002"/>
<path transform="translate(402,50)" d="m0 0 1 2-1 2c-2.39 0.59-4.71 1.08-7.12 1.5-3.95 0.71-7.77 1.47-11.6 2.59-3.26 0.91-3.26 0.91-7.26 0.91l-1-3c2.68-1.79 4-2.39 7.02-3.07 1.16-0.26 1.16-0.26 2.35-0.53 0.81-0.17 1.61-0.35 2.44-0.52 1.19-0.28 1.19-0.28 2.41-0.56 4.34-0.95 8.31-1.54 12.8-1.32z" fill="#27323D"/>
<path transform="translate(818 199)" d="m0 0c0.86 0.55 0.86 0.55 1.73 1.12-0.67 5.26-2.24 10-4 15l2 1-4 2c-0.06-0.62-0.12-1.23-0.18-1.87-0.08-0.8-0.17-1.61-0.25-2.45-0.08-0.8-0.17-1.6-0.25-2.42-0.27-2.42-0.27-2.42-1.32-5.26-0.99 0.33-1.98 0.66-3 1-0.99-0.33-1.98-0.66-3-1l2-1v-3c1.24-0.73 2.5-1.43 3.75-2.13 0.7-0.39 1.4-0.79 2.11-1.19 2.14-0.68 2.14-0.68 4.41 0.2z" fill="#2C3137"/>
<path transform="translate(944 192)" d="m0 0c2.1 1.07 2.1 1.07 3.91 2.16 2 1.11 3.47 1.7 5.75 1.97 1.67-0.65 3.34-1.32 5-2 2.89-0.2 2.89-0.2 5.81-0.13 1.47 0.03 1.47 0.03 2.96 0.06 0.74 0.02 1.47 0.04 2.23 0.07l-1 3c-3 0.28-6 0.52-9 0.75-0.84 0.08-1.68 0.16-2.54 0.24-5.54 0.39-8.93-0.31-13.7-3.07-3.43-1.84-6.97-1.42-10.7-0.92-2.01 0.64-4.01 1.3-6 2-2.17-0.44-2.17-0.44-4-1 6.79-4.1 13.6-6.01 21.3-3.13z" fill="#000002"/>
<path transform="translate(544,181)" d="m0 0c2.48 0.5 2.48 0.5 5 1 1.35 6.36 1.35 6.36-0.31 9.44-1.69 1.56-1.69 1.56-3.69 1.56v2c-16.6 9.63-16.6 9.63-22 12l-2-1c3.14-2.52 6.4-4.33 10-6.12 1.55-0.78 1.55-0.78 3.12-1.58 2.88-1.3 2.88-1.3 5.19-1.79 0.84-0.25 0.84-0.25 1.69-0.51l1-3 2-1c0.27-4.65 0.27-4.65-1-9l1-2z" fill="#292B2F"/>
<path transform="translate(622,264)" d="m0 0c2.5 1 2.5 1 4 2v2c-0.68-0.17-1.35-0.34-2.05-0.51-0.89-0.2-1.78-0.41-2.7-0.61-1.32-0.32-1.32-0.32-2.67-0.64-3-0.28-4.22-0.1-6.58 1.76-0.81 2.56-0.81 2.56-1 5 0.65 0.18 1.3 0.36 1.98 0.55 10 2.88 10 2.88 14 5.45 0.65 2.1 0.65 2.1 1 4-15-5.42-15-5.42-19-9-1.12-2.5-1.12-2.5-1-5 4.05-5.02 7.76-5.53 14-5z" fill="#000002"/>
<path transform="translate(946,219)" d="m0 0v2c-4.36 1.55-8.72 3.1-13.1 4.64-1.48 0.53-2.97 1.06-4.45 1.58-2.13 0.76-4.26 1.52-6.4 2.28-0.99 0.35-0.99 0.35-2 0.71-2.69 0.95-5.37 1.89-8.07 2.79 1.61-3.72 3.34-5.17 7-7 1.66-0.34 3.33-0.67 5-1 2.71-0.57 5.33-1.24 8-2l1-2 2 1 1-2c3.44-0.76 6.47-1 10-1z" fill="#2B2E32"/>
<path transform="translate(573,268)" d="m0 0 2 1v18l16 1v3h-18c-1.51-7.57-1.69-15.4 0-23z" fill="#000002"/>
<path transform="translate(420,46)" d="m0 0c1.94 1.5 1.94 1.5 3 3-3.67 1.12-6.99 2-10.8 2.5-3.28 0.19-3.28 0.19-5.19 2.5-2-0.12-2-0.12-4-1-1.12-2.05-1.12-2.05-2-4 13.4-3.71 13.4-3.71 19-3z" fill="#293037"/>
<path transform="translate(470,268)" d="m0 0h1l1 19 16 1v3h-18c-1.51-7.57-1.69-15.4 0-23z" fill="#10161C"/>
<path transform="translate(663,151)" d="m0 0h4c-0.59 3.92-1.76 6.83-3.75 10.2-0.73 1.31-0.73 1.31-1.48 2.64-1.77 2.11-1.77 2.11-4.47 2.91-1.14 0.1-1.14 0.1-2.3 0.2 1.51-5.73 4.22-11.4 8-16zm-9 16c0.99 0.5 0.99 0.5 2 1l-1 4-1-5z" fill="#293139"/>
<path transform="translate(919,289)" d="m0 0c0.5 1.49 0.5 1.49 1 3-8.57 8.53-20.4 17.6-32.9 18.1-0.68-0.04-1.36-0.08-2.06-0.12 2.19-2.19 3.46-2.61 6.38-3.5 2.36-0.73 4.48-1.42 6.66-2.59 1.96-0.91 1.96-0.91 5.96-0.91l1-3c1.37-0.94 2.76-1.87 4.17-2.75 3.54-2.42 6.65-5.38 9.83-8.25z" fill="#2B2C2F"/>
<path transform="translate(1242,199)" d="m0 0v3c-4.76 2.07-9.54 4.04-14.4 5.95-1.8 0.72-3.6 1.46-5.39 2.23-0.88 0.37-1.77 0.75-2.68 1.13-1.2 0.52-1.2 0.52-2.43 1.05-2.13 0.64-2.13 0.64-5.13-0.36 2.33-2.66 4.44-3.76 7.75-4.97 0.92-0.34 1.84-0.69 2.78-1.04 0.96-0.35 1.92-0.69 2.91-1.05 1.89-0.7 3.79-1.4 5.68-2.1 0.84-0.31 1.68-0.61 2.55-0.93 2.34-0.87 2.34-0.87 4.51-2.02 1.82-0.89 1.82-0.89 3.82-0.89z" fill="#010103"/>
<path transform="translate(850,195)" d="m0 0c2.12 2.44 2.12 2.44 3 5l-1 2c-0.56-0.96-0.56-0.96-1.12-1.94-1.76-2.26-1.76-2.26-4.57-3-7.23-0.13-14.4 4.01-20.3 7.94l-1 2-4-1c19-14.6 19-14.6 29-11z" fill="#010103"/>
<path transform="translate(1193,160)" d="m0 0-1 5c-4.29 0.99-8.58 1.98-13 3l-2-5c10.4-3.44 10.4-3.44 16-3z" fill="#202124"/>
<path transform="translate(761,160)" d="m0 0 1 4c-4.97 1.76-9.74 3.33-15 4l-1-5c1.56-0.51 3.12-1.01 4.69-1.5 0.87-0.28 1.74-0.56 2.63-0.84 2.67-0.66 4.94-0.78 7.68-0.66z" fill="#1F2023"/>
<path transform="translate(323,72)" d="m0 0v3c-10.9 5.11-10.9 5.11-16 6-2.2-1.46-2.2-1.46-4-3 2.95-1.2 5.91-2.38 8.88-3.56 0.84-0.34 1.68-0.69 2.55-1.04 0.8-0.32 1.61-0.64 2.44-0.97 0.74-0.29 1.48-0.59 2.25-0.9 1.88-0.53 1.88-0.53 3.88 0.47z" fill="#222426"/>
<path transform="translate(1016,281)" d="m0 0c0.4 0.43 0.8 0.87 1.21 1.31 3.27 3.2 5.67 5.14 10.4 5.31 4.49-0.29 7.01-1.8 10.4-4.62-0.26 3.21-0.57 4.61-3 6.81-4.6 1.82-9.46 2.17-14.1 0.37-2.82-1.79-4.15-4.37-5.86-7.18l1-2z" fill="#000002"/>
<path transform="translate(945,246)" d="m0 0c1.12 3.75 1.12 3.75 0 6h3c-1.06 3.4-2.01 6.01-4 9-0.99-0.33-1.98-0.66-3-1l-1 5c-0.99-0.33-1.98-0.66-3-1 1.35-4.36 3.05-8.31 5.12-12.4 0.54-1.05 1.08-2.11 1.64-3.21 0.41-0.79 0.82-1.59 1.24-2.41z" fill="#232C35"/>
<path transform="translate(528,183)" d="m0 0c-1.73 0.65-1.73 0.65-3.5 1.31-0.73 0.28-1.47 0.56-2.22 0.85-1.42 0.52-2.84 1.02-4.28 1.5-8.37 2.83-14.9 7.98-21.3 14-1.73 1.32-1.73 1.32-4.73 1.32 7.82-8.52 23.2-23.3 36-19z" fill="#010103"/>
<path transform="translate(1165,201)" d="m0 0h2c0.06 0.66 0.12 1.33 0.18 2.01 0.51 5.53 0.51 5.53 1.51 11 0.1 0.66 0.2 1.32 0.31 2l-2 2c-4.9-4.66-4.9-4.66-5.18-8.33 0.61-6.1 0.61-6.1 3.18-8.67z" fill="#2F3E4D"/>
<path transform="translate(889,237)" d="m0 0v3c-6.75 4-6.75 4-9 4v2c-1.3 0.58-1.3 0.58-2.63 1.18-3.63 1.96-6.25 4.19-9.25 7.01-0.49 0.46-0.99 0.92-1.5 1.4-1.21 1.13-2.42 2.27-3.62 3.41l-2-1c7.73-8.67 17.4-16.1 28-21z" fill="#030305"/>
<path transform="translate(576,217)" d="m0 0h2v2h2v-2c2.21-0.03 4.42-0.05 6.62-0.06 1.23-0.01 2.46-0.03 3.73-0.04 3.33 0.09 6.39 0.46 9.65 1.1v2h-26l2-1v-2z" fill="#2B2E33"/>
<path transform="translate(1292,220)" d="m0 0 1 4c-6.78 1.42-13.1 2.23-20 2v-1c0.76-0.1 1.53-0.21 2.31-0.31 2.71-0.42 2.71-0.42 4-2.19 3.31-2.94 8.43-2.5 12.7-2.5z" fill="#2C3239"/>
<path transform="translate(1107,210)" d="m0 0c1.42 0.12 2.83 0.24 4.25 0.38 0.79 0.06 1.58 0.13 2.39 0.21 2.36 0.41 2.36 0.41 4.3 1.41 2.63 1.28 4.9 1.42 7.81 1.62 1.48 0.12 1.48 0.12 2.98 0.23 0.75 0.05 1.5 0.1 2.27 0.15-6.4 3.66-13.3 2.37-20.1 0.5-1.63-0.49-3.26-0.98-4.88-1.5l1-3z" fill="#2C3239"/>
<path transform="translate(617,192)" d="m0 0 2 1c-4.23 4.58-8.99 6.7-14.6 9.31-0.96 0.47-1.92 0.94-2.91 1.42-0.92 0.43-1.84 0.87-2.78 1.32-1.26 0.6-1.26 0.6-2.55 1.21-2.2 0.74-2.2 0.74-5.2-0.26 6.53-3.75 13.2-7.13 20-10.4 3.1-1.51 3.1-1.51 6.04-3.55z" fill="#2B2D31"/>
<path transform="translate(1099,187)" d="m0 0c2.88 2 2.88 2 5 4l-1 2c-0.64-0.52-1.28-1.03-1.94-1.56-4.24-2-7.58-1.66-12.1-0.44-2.87 1.81-2.87 1.81-5 4-3 2-3 2-5.19 1.62-0.6-0.2-1.19-0.41-1.81-0.62 13.6-10.1 13.6-10.1 22-9z" fill="#020204"/>
<path transform="translate(221,182)" d="m0 0c0.5 0.39 0.99 0.77 1.5 1.17 7.78 5.96 13.7 9.33 23.5 10.8v3c-10.5-1.14-18.1-4.98-25-13v-2z" fill="#000002"/>
<path transform="translate(1258,206)" d="m0 0h2c1 3 1 3 1 5 0.19 1.13 0.37 2.27 0.56 3.44 0.44 3.56 0.44 3.56-0.56 6.56-3-1-3-1-5-4-0.01-2.45-0.01-2.45 0.31-5.12 0.1-0.89 0.2-1.78 0.3-2.7 0.39-2.18 0.39-2.18 1.39-3.18z" fill="#2C3035"/>
<path transform="translate(851,203)" d="m0 0c2.3 2.2 4.27 4.52 6.19 7.06 0.53 0.69 1.06 1.39 1.6 2.1 1.21 1.84 1.21 1.84 1.21 3.84l4 2c-4.9-0.46-7.51-1.51-11-5-1.5-2.28-2.74-4.57-4-7l2-3z" fill="#2F3D4B"/>
<path transform="translate(676,184)" d="m0 0 2 1c-15.8 12.3-15.8 12.3-21.9 11.7-0.68-0.23-1.36-0.46-2.06-0.69 0.5-0.25 1.01-0.5 1.53-0.75 3.37-1.7 6.7-3.48 10-5.25 0.67-0.36 1.35-0.71 2.04-1.08 2.89-1.54 5.67-3.1 8.4-4.92z" fill="#020305"/>
<path transform="translate(428,276)" d="m0 0h18v3h-18v-3z" fill="#000002"/>
<path transform="translate(868,254)" d="m0 0 2 1c-1.44 1.77-2.87 3.54-4.31 5.31-0.8 0.99-1.6 1.97-2.43 2.99-1.69 2.02-3.36 3.89-5.26 5.7l-1-3-3 2c1.35-4.4 3.13-6.51 7-9h4c0.31-0.64 0.62-1.28 0.94-1.94 1.06-2.06 1.06-2.06 2.06-3.06zm-9 8 1 2z" fill="#202226"/>
<path transform="translate(608,283)" d="m0 0h2c0.39 0.64 0.78 1.28 1.19 1.94 1.74 2.37 1.74 2.37 5.12 2.94 3.78 0.12 6.22-0.44 9.69-1.88-0.38 1.94-0.38 1.94-1 4-2.35 1.18-3.82 1.13-6.44 1.12-1.17 0.01-1.17 0.01-2.37 0.01-3.11-0.19-4.77-0.66-6.88-3.01-1.31-2.12-1.31-2.12-1.31-5.12z" fill="#000002"/>
<path transform="translate(686,177)" d="m0 0 2 1v2l2 1c-5.29 4.92-5.29 4.92-8.88 5.31-1.05-0.15-1.05-0.15-2.12-0.31l-1-3 8-6zm-5 6 1 2z" fill="#232A31"/>
<path transform="translate(1386,288)" d="m0 0h17v3h-17v-3z" fill="#000002"/>
<path transform="translate(1087,282)" d="m0 0c0.83 0.8 1.65 1.61 2.5 2.44 3.81 3.15 6.57 3.56 11.5 3.56 3.42-1.29 3.42-1.29 6-3v3h-3v2c-3.47 1.73-7.21 1.47-11 1-3.44-1.93-4.69-2.96-5.81-6.75-0.06-0.74-0.13-1.49-0.19-2.25z" fill="#000002"/>
<path transform="translate(1265,276)" d="m0 0h17v3h-17v-3z" fill="#000002"/>
<path transform="translate(239 116)" d="m0 0c0.68 0.31 1.36 0.62 2.06 0.94l-2 4h-2c-0.25 0.64-0.49 1.28-0.75 1.94-1.25 2.06-1.25 2.06-3.37 2.81-0.93 0.12-0.93 0.12-1.88 0.25l-2-3c6.08-7.02 6.08-7.02 9.94-6.94z" fill="#262B31"/>
<path transform="translate(864,306)" d="m0 0c1.21 0.5 1.21 0.5 2.44 1 3.09 0.87 4.95 1.08 8.06 1 3.88-0.11 6.87 0.51 10.5 2v1c-2.56 0.05-5.12 0.09-7.69 0.12-0.72 0.02-1.44 0.04-2.18 0.06-4.18 0.03-7.38-0.3-11.1-2.18v-3z" fill="#2B2D30"/>
<path transform="translate(432,44)" d="m0 0-3 2c2.31 0.33 4.62 0.66 7 1-2.47 2.47-4.49 2.67-7.89 3.05-3.2-0.07-5.44-1.38-8.11-3.05 1-2 1-2 2.62-2.62 3.15-0.5 6.21-0.44 9.38-0.38z" fill="#25272A"/>
<path transform="translate(1307,287)" d="m0 0 17 1v3h-15l-2-4z" fill="#000002"/>
<path transform="translate(1131,288)" d="m0 0h17l-1 3h-15l-1-3z" fill="#000002"/>
<path transform="translate(1361,276)" d="m0 0 1 3c-3.39 3.13-5.71 3.34-10.2 3.19-1.62-0.04-1.62-0.04-3.27-0.08-1.23-0.06-1.23-0.06-2.48-0.11l1-3c1.39-0.2 1.39-0.2 2.81-0.4 1.2-0.18 2.39-0.36 3.63-0.54 1.19-0.17 2.39-0.35 3.62-0.52 2.82-0.23 2.82-0.23 3.94-1.54z" fill="#000002"/>
<path transform="translate(608,182)" d="m0 0c3.02-0.18 6-0.56 9-1l-1 2c-6.29 1.79-12.5 2.11-19 2-2.68 0.25-5.33 0.62-8 1 5.07-5.07 12.4-5.21 19-4z" fill="#181C22"/>
<path transform="translate(1129,268)" d="m0 0h2c0.06 3.29 0.09 6.58 0.12 9.88 0.03 1.4 0.03 1.4 0.06 2.83 0 0.9 0.01 1.8 0.02 2.72 0.01 0.83 0.02 1.65 0.03 2.51-0.23 2.06-0.23 2.06-2.23 4.06-1.2-6.45-2.98-16 0-22z" fill="#2D3C4A"/>
<path transform="translate(942,201)" d="m0 0h2l1 4c-3 2-5.59 2.91-9 4-0.99 0.5-0.99 0.5-2 1-1.54 0.07-3.08 0.08-4.62 0.06-1.23-0.01-1.23-0.01-2.48-0.02-0.94-0.02-0.94-0.02-1.9-0.04l-1-2c1.19-0.16 1.19-0.16 2.41-0.33 5.74-0.86 10.6-1.63 15.6-4.67v-2z" fill="#000102"/>
<path transform="translate(819,202)" d="m0 0c1 2 1 2 0.22 4.6-0.38 1-0.76 2-1.16 3.02-0.38 1.01-0.76 2.01-1.15 3.04-0.3 0.77-0.6 1.55-0.91 2.34l2 1-4 2c-0.06-0.61-0.12-1.23-0.18-1.86-0.09-0.81-0.17-1.62-0.26-2.45-0.08-0.8-0.16-1.6-0.24-2.43-0.27-2.42-0.27-2.42-1.32-5.26 0.99-0.33 1.98-0.66 3-1v3h2c0.14-0.8 0.29-1.61 0.44-2.44 0.56-2.56 0.56-2.56 1.56-3.56z" fill="#2C3945"/>
<path transform="translate(1383,268)" d="m0 0c0.99 0.33 1.98 0.66 3 1 0.06 3.1 0.09 6.21 0.12 9.31 0.03 1.32 0.03 1.32 0.06 2.67 0 0.85 0.01 1.7 0.02 2.57 0.01 1.17 0.01 1.17 0.03 2.37-0.23 2.08-0.23 2.08-2.23 5.08-1.23-2.45-1.11-4.05-1.1-6.79 0.01-0.94 0.01-1.88 0.01-2.85 0.01-0.99 0.02-1.97 0.03-2.98 0-1 0.01-1.99 0.01-3.01 0.01-2.46 0.03-4.91 0.05-7.37z" fill="#2B3743"/>
<path transform="translate(1102,264)" d="m0 0c5.5 3 5.5 3 7 6-4.75-1.88-4.75-1.88-7-3-6.5-0.56-10.4 0.68-16 4 1.2-3.59 2.7-4.46 5.97-6.2 3.63-1.43 6.13-1.29 10-0.8z" fill="#000002"/>
<path transform="translate(622,264)" d="m0 0c2.5 1 2.5 1 4 2v2c-0.68-0.17-1.35-0.34-2.05-0.51-0.89-0.2-1.78-0.41-2.7-0.61-1.32-0.32-1.32-0.32-2.67-0.64-2.95-0.28-4.18 0.04-6.58 1.76-1.1 3.29-0.8 4.71 0 8l-4-3c0.5-3.68 1.06-5.65 4-8 3.17-1.58 6.54-1.29 10-1z" fill="#0B0F14"/>
<path transform="translate(942,261)" d="m0 0 1 2c-1.31 2.62-1.31 2.62-3 5h-2c-0.06 0.72-0.12 1.44-0.19 2.19-1.05 3.66-3.02 5.3-5.81 7.81v-7h3l2-7c0.99 0.33 1.98 0.66 3 1l2-4z" fill="#2F3E4C"/>
<path transform="translate(542,193)" d="m0 0h3v2c-16.6 9.63-16.6 9.63-22 12l-2-1c3.14-2.52 6.4-4.33 10-6.12 1.03-0.52 2.06-1.04 3.12-1.58 2.88-1.3 2.88-1.3 5.19-1.79 0.56-0.17 1.12-0.34 1.69-0.51l1-3z" fill="#2B2D31"/>
<path transform="translate(250,105)" d="m0 0 2 1c-0.97 0.72-1.94 1.44-2.94 2.19-2.98 2.44-3.44 4-4.06 7.81-2.06 1.31-2.06 1.31-4 2l-4-3 13-10z" fill="#191A1D"/>
<path transform="translate(1227,207)" d="m0 0c2.19 0.31 2.19 0.31 4 1-1 3-1 3-3.36 4.24-0.98 0.35-1.95 0.71-2.95 1.07-1.45 0.55-1.45 0.55-2.93 1.12-2.76 0.57-2.76 0.57-5.12-0.32-0.54-0.37-1.08-0.73-1.64-1.11 0.92-0.27 0.92-0.27 1.86-0.55 1.22-0.38 1.22-0.38 2.45-0.76 1.2-0.37 1.2-0.37 2.43-0.74 2.37-1 3.49-2.14 5.26-3.95z" fill="#2B2C2F"/>
<path transform="translate(1245,202)" d="m0 0c-1 3-1 3-3.88 4.62-3 1.33-6.01 2.34-9.12 3.38l-1-3h2l1-2c3.44-3.44 6.29-3.27 11-3z" fill="#2C3137"/>
<path transform="translate(1034 265)" d="m0 0c2.31 1.42 4 2.65 5.75 4.69l-1 2c-0.97-0.83-1.94-1.65-2.94-2.5-4.3-3.08-7.92-3.24-13.1-2.5-3.41 0.88-3.41 0.88-6 2 5.06-5.42 10.2-6.53 17.2-3.69z" fill="#000002"/>
<path transform="translate(1386,276)" d="m0 0h14v3h-14v-3z" fill="#000002"/>
<path transform="translate(1308,276)" d="m0 0h14v3h-14v-3z" fill="#000002"/>
<path transform="translate(1131,276)" d="m0 0h14v3h-14v-3z" fill="#000002"/>
<path transform="translate(575,276)" d="m0 0h14v3h-14v-3z" fill="#000002"/>
<path transform="translate(1345,267)" d="m0 0c1.25 2.5 1.11 4.21 1.1 7.01-0.01 1.48-0.01 1.48-0.01 2.99-0.01 1.03-0.02 2.06-0.03 3.12 0 1.05-0.01 2.09-0.01 3.16-0.01 2.57-0.03 5.15-0.05 7.72h-2c-0.2-2.52-0.38-5.04-0.56-7.56-0.06-0.71-0.11-1.41-0.17-2.14-0.32-4.58-0.15-8.76 0.73-13.3l1-1z" fill="#2D3C4A"/>
<path transform="translate(534,264)" d="m0 0c10.7-0.38 10.7-0.38 16 2 2 2 2 2 2.12 5.12-0.04 0.95-0.08 1.9-0.12 2.88h-2c0.06-0.78 0.12-1.57 0.19-2.38-0.06-0.86-0.13-1.73-0.19-2.62-3.74-2.49-5.74-2.21-10.2-2.12-1.27 0.01-2.54 0.03-3.85 0.05-0.98 0.02-1.95 0.05-2.96 0.07l1-3z" fill="#05070B"/>
<path transform="translate(1211,212)" d="m0 0h2v2l4 1c-6.33 2.43-12.2 3.59-19 4 2.66-2.66 5.36-3.16 8.91-4.22 2.27-0.68 2.27-0.68 4.09-2.78z" fill="#2D3740"/>
<path transform="translate(1344,264)" d="m0 0c7.1-0.31 12.7-0.45 19 3v3c-0.67-0.49-1.35-0.98-2.04-1.49-3.66-1.87-6.19-1.81-10.3-1.7-1.26 0.03-2.51 0.06-3.8 0.08-0.96 0.04-1.91 0.07-2.89 0.11v-3z" fill="#000002"/>
<path transform="translate(1246,191)" d="m0 0c0.72 0.5 1.44 0.99 2.19 1.5 5.12 2.64 11.2 1.72 16.8 1.5v3c-13.8 0.55-13.8 0.55-19-3v-3z" fill="#000002"/>
<path transform="translate(1243,185)" d="m0 0 2 1c0.41 2.07 0.41 2.07 0.62 4.56 0.08 0.83 0.15 1.66 0.23 2.51 0.05 0.63 0.1 1.27 0.15 1.93h-2c-0.99 0.5-0.99 0.5-2 1-1.76-2.68-2.01-3.92-1.75-7.19 0.25-0.93 0.49-1.85 0.75-2.81l2-1zm0 2 1 2z" fill="#212932"/>
<path transform="translate(1098,276)" d="m0 0h12v4l-12-1v-3z" fill="#000002"/>
<path transform="translate(472,276)" d="m0 0h13v3h-13v-3z" fill="#000002"/>
<path transform="translate(402,50)" d="m0 0 1 2-1 2c-2.29 0.41-2.29 0.41-5.06 0.62-0.92 0.08-1.84 0.15-2.79 0.23-1.06 0.08-1.06 0.08-2.15 0.15v-3c3.4-2.09 6.05-2.18 10-2z" fill="#2A3744"/>
<path transform="translate(1385,264)" d="m0 0h17l1 2c-9.4 0.5-9.4 0.5-19 1l1-3z" fill="#000002"/>
<path transform="translate(645,264)" d="m0 0h20v2h-21l1-2z" fill="#000002"/>
<path transform="translate(410,48)" d="m0 0v2c0.99 0.33 1.98 0.66 3 1-2.97 1.24-5.85 2.3-9 3-0.99-1.65-1.98-3.3-3-5 3.07-0.91 5.8-1.09 9-1z" fill="#222529"/>
<path transform="translate(548,274)" d="m0 0 2 1 1 4-16-1v-2c0.85-0.06 1.71-0.12 2.59-0.18 1.66-0.13 1.66-0.13 3.35-0.26 1.1-0.08 2.2-0.16 3.34-0.24 2.63-0.02 2.63-0.02 3.72-1.32z" fill="#030508"/>
<path transform="translate(1283,268)" d="m0 0c4.21 6.32 1.95 15.8 1 23h-1c-1-7.83-0.89-15.2 0-23z" fill="#2F3D4B"/>
<path transform="translate(1307,264)" d="m0 0h17v2c-5.94 0.33-11.9 0.66-18 1l1-3z" fill="#000002"/>
<path transform="translate(986 264)" d="m0 0c1.09 0.01 1.09 0.01 2.21 0.02 0.72 0 1.44-0.01 2.18-0.02 4.11 0.02 6.18 0.39 9.94 2.27h-22c2.54-2.54 4.2-2.26 7.67-2.27z" fill="#000002"/>
<path transform="translate(573,264)" d="m0 0h17l1 2c-5.94 0.33-11.9 0.66-18 1v-3z" fill="#000002"/>
<path transform="translate(470,264)" d="m0 0h17l1 2c-5.94 0.33-11.9 0.66-18 1v-3z" fill="#000002"/>
<path transform="translate(1130,264)" d="m0 0c2.44-0.05 4.87-0.09 7.31-0.12 0.69-0.02 1.38-0.04 2.09-0.06 3.77-0.03 5.38 0.04 8.6 2.18-9.4 0.5-9.4 0.5-19 1l1-3z" fill="#000002"/>
<path transform="translate(377,56)" d="m0 0c-0.71 1.95-0.71 1.95-2 4-2.16 0.61-2.16 0.61-4.62 0.75-0.82 0.06-1.64 0.11-2.48 0.17-0.63 0.03-1.25 0.05-1.9 0.08l2-1c0.29-0.66 0.58-1.32 0.88-2 1.12-2 1.12-2 3.06-2.81 2.06-0.19 2.06-0.19 5.06 0.81z" fill="#292B2F"/>
<path transform="translate(1263,268)" d="m0 0h1c1.95 18.6 1.95 18.6-1 23-0.2-2.71-0.38-5.42-0.56-8.12-0.06-0.77-0.11-1.53-0.17-2.31-0.28-4.37-0.2-8.25 0.73-12.6z" fill="#2E3E4C"/>
<path transform="translate(808,270)" d="m0 0 2 2h-2c-0.27 0.56-0.54 1.11-0.81 1.69-1.29 2.51-2.72 4.9-4.19 7.31-3-2-3-2-3.69-4.62-0.1-0.79-0.2-1.57-0.31-2.38h-2l1-3 4 6c0.62-0.78 1.24-1.57 1.88-2.38 2.12-2.62 2.12-2.62 4.12-4.62z" fill="#020305"/>
<path transform="translate(426,268)" d="m0 0h1c0.22 2.79 0.43 5.58 0.62 8.38 0.07 0.79 0.13 1.58 0.2 2.4 0.14 2.07 0.17 4.15 0.18 6.22l-2 2c-1.28-6.41-1.6-12.6 0-19z" fill="#30404F"/>
<path transform="translate(304 79.4)" d="m0 0c0.93 0.21 1.86 0.41 2.81 0.62v2c-4.95 1.49-4.95 1.49-10 3 1.21-4.84 2.09-6.22 7.19-5.62z" fill="#282A2E"/>
<path transform="translate(573,268)" d="m0 0 2 1c0.1 7.43 0 14.6-1 22-2-2-2-2-2.23-5.27 0.02-1.97 0.02-1.97 0.04-3.98 0.01-1.3 0.02-2.61 0.02-3.95 0.15-3.36 0.53-6.5 1.17-9.8z" fill="#26313C"/>
<path transform="translate(516,186)" d="m0 0h8v2c-1.95 0.86-3.91 1.72-5.88 2.56-1.09 0.48-2.18 0.95-3.3 1.44-0.93 0.33-1.86 0.66-2.82 1l-2-1c0.8-0.62 1.61-1.24 2.44-1.88 2.6-1.86 2.6-1.86 3.56-4.12z" fill="#2B2C2F"/>
<path transform="translate(586,186)" d="m0 0c0.99 0.33 1.98 0.66 3 1-2.89 2.24-5.86 4.13-9 6-2.01 1.32-4.01 2.66-6 4l-2-1 5.88-4.44c0.55-0.42 1.11-0.84 1.68-1.27 4.21-3.18 4.21-3.18 6.44-4.29z" fill="#000002"/>
<path transform="translate(762,282)" d="m0 0h10l1 3h-12l1-3z" fill="#000002"/>
<path transform="translate(903,231)" d="m0 0v2c-1.6 0.87-3.2 1.72-4.81 2.56-0.9 0.48-1.79 0.95-2.71 1.44-2.48 1-2.48 1-5.48 0 1.29-0.81 2.58-1.63 3.88-2.44 1.07-0.68 1.07-0.68 2.17-1.37 2.69-1.65 3.7-2.19 6.95-2.19z" fill="#010103"/>
<path transform="translate(550,287)" d="m0 0v3h-15v-2c2.12-0.17 4.25-0.33 6.38-0.5 1.18-0.09 2.36-0.19 3.58-0.28 1.68-0.12 3.36-0.22 5.04-0.22z" fill="#000002"/>
<path transform="translate(638,208)" d="m0 0 2 1c-2.88 2.38-5.42 3.68-9 4.75-1.27 0.39-1.27 0.39-2.56 0.8-2.55 0.47-4.02 0.28-6.44-0.55 2.99-2 5.11-2.69 8.56-3.56 3.82-0.95 3.82-0.95 7.44-2.44z" fill="#2B2C2F"/>
<path transform="translate(601,186)" d="m0 0c-1.28 0.52-1.28 0.52-2.59 1.06-1.1 0.45-2.21 0.91-3.35 1.38-1.65 0.68-1.65 0.68-3.34 1.37-2.59 0.93-2.59 0.93-3.72 2.19-1.67 0.04-3.33 0.04-5 0 3-2 3-2 5-2l1-3c1.71-0.77 1.71-0.77 3.81-1.25 0.69-0.17 1.38-0.34 2.08-0.52 2.3-0.25 3.92 0.08 6.11 0.77z" fill="#2C3138"/>
<path transform="translate(1131,214)" d="m0 0c-5.31 3.1-11.2 2.45-17.1 1.5-0.62-0.16-1.24-0.33-1.88-0.5v-1c6.45-1.32 12.5-0.7 19 0z" fill="#30404F"/>
<path transform="translate(657,207)" d="m0 0 5 4-1 5c-3-1-3-1-4.25-3.38-0.75-2.62-0.75-2.62 0.25-5.62z" fill="#2C3238"/>
<path transform="translate(1356 196)" d="m0 0c0.56 0.23 1.12 0.45 1.7 0.68v2c-0.7 0.11-1.4 0.21-2.12 0.32-3.02 0.6-3.02 0.6-6.06 2.31-0.93 0.45-1.86 0.91-2.82 1.37l-2-1c1.41-1.03 2.83-2.05 4.25-3.06 0.79-0.57 1.58-1.14 2.39-1.72 2.36-1.22 2.36-1.22 4.66-0.9z" fill="#000002"/>
<path transform="translate(988,267)" d="m0 0c0.99 0.5 0.99 0.5 2 1v22l-2 1v-24z" fill="#30404F"/>
<path transform="translate(1185,265)" d="m0 0v1h-9l-1 2-2-1c-1.54-0.22-3.08-0.41-4.62-0.56-0.82-0.09-1.64-0.17-2.48-0.26-0.63-0.06-1.25-0.12-1.9-0.18v-1c7.18-1.01 13.8-0.89 21 0z" fill="#000002"/>
<path transform="translate(667,196)" d="m0 0c-2.53 3.09-5.22 3.91-9 5l-1-4c6.62-2.12 6.62-2.12 10-1z" fill="#2F3E4C"/>
<path transform="translate(216,140)" d="m0 0c0.99 0.33 1.98 0.66 3 1l1 5-4 2c-1.12-1.75-1.12-1.75-2-4 0.88-2.25 0.88-2.25 2-4z" fill="#26292D"/>
<path transform="translate(875,247)" d="m0 0c0.99 0.33 1.98 0.66 3 1-1.49 3.8-3.76 5.61-7 8l-2-1c1.98-2.64 3.96-5.28 6-8z" fill="#2B2E32"/>
<path transform="translate(374,89)" d="m0 0c1.5 1.12 1.5 1.12 3 3 0.19 3.19 0.19 3.19 0 6-0.99 0.5-0.99 0.5-2 1v-3l-2-1-1-1c0.69-3.69 0.69-3.69 2-5z" fill="#2A2D32"/>
<path transform="translate(408,265)" d="m0 0v1c-7.22 0.79-13.8 1.08-21 0v-1c7.18-1.01 13.8-0.89 21 0z" fill="#000002"/>
<path transform="translate(654,267)" d="m0 0c0.99 0.5 0.99 0.5 2 1l-1 23h-1v-24z" fill="#30404F"/>
<path transform="translate(397,268)" d="m0 0c2 2 2 2 2.14 4.15-0.06 0.87-0.11 1.74-0.16 2.64-0.05 0.94-0.11 1.88-0.16 2.85-0.06 0.99-0.13 1.97-0.2 2.98-0.05 1-0.11 1.99-0.17 3.01-0.14 2.46-0.29 4.91-0.45 7.37h-1v-23z" fill="#2F3F4D"/>
<path transform="translate(447,267)" d="m0 0h1v24h-1v-24z" fill="#2F3F4D"/>
<path transform="translate(1223,265)" d="m0 0h22v1c-7.51 0.84-14.5 1.08-22 0v-1z" fill="#000002"/>
<path transform="translate(533,268)" d="m0 0h1v22h-1c-0.2-2.35-0.38-4.71-0.56-7.06-0.11-1.31-0.21-2.62-0.32-3.98-0.12-3.88 0.21-7.15 0.88-11z" fill="#2D3D4B"/>
<path transform="translate(1174,268)" d="m0 0h1v23h-1v-23z" fill="#30404F"/>
<path transform="translate(730,283)" d="m0 0c1.49 0.99 1.49 0.99 3 2l2 1-1 3h-4c-0.38-1.66-0.71-3.32-1-5l1-1z" fill="#181F27"/>
<path transform="translate(1232,272)" d="m0 0h2v14h-1c-0.17-2.15-0.33-4.29-0.5-6.44-0.09-1.19-0.19-2.39-0.28-3.62-0.22-2.94-0.22-2.94-0.22-3.94z" fill="#30404F"/>
<path transform="translate(524,37)" d="m0 0h16v1h-16v-1z" fill="#000002"/>
<path transform="translate(1039,275)" d="m0 0 2 2c-0.38 3.62-0.38 3.62-1 7h-1c-0.88-6.15-0.88-6.15-1-8l1-1z" fill="#30404F"/>
<path transform="translate(712,285)" d="m0 0c0.99 0.33 1.98 0.66 3 1 0.69 2.06 0.69 2.06 1 4-0.99 0.33-1.98 0.66-3 1l-1-6z" fill="#0D0F13"/>
<path transform="translate(760,275)" d="m0 0c1 3 1 3 1 6-2 1.69-2 1.69-4 3 0.56-3.34 1.35-6.03 3-9z" fill="#030407"/>
<path transform="translate(723,264)" d="m0 0c2.36 2.36 2.49 3.78 3 7l-4-1c-0.04-1.67-0.04-3.33 0-5l1-1z" fill="#06090D"/>
<path transform="translate(613,218)" d="m0 0-11 1c4.27-2.85 6.58-3.95 11-1z" fill="#2C3035"/>
<path transform="translate(1086,276)" d="m0 0v7c-3-3.75-3-3.75-3-6 2-1 2-1 3-1z" fill="#30404F"/>
<path transform="translate(791,264)" d="m0 0c3.4 1.13 4.05 2.13 6 5l-1 2c-5-5.88-5-5.88-5-7z" fill="#000002"/>
<path transform="translate(1108,281)" d="m0 0h1v10h-1v-10z" fill="#30404F"/>
<path transform="translate(813,264)" d="m0 0v3c-2 1.69-2 1.69-4 3 1.15-2.47 2.05-4.05 4-6z" fill="#000002"/>
<path transform="translate(766,264)" d="m0 0c0.99 0.33 1.98 0.66 3 1v2h-4l1-3z" fill="#000002"/>
<path transform="translate(544,36)" d="m0 0h10v1h-10v-1z" fill="#000102"/>
<path transform="translate(777,284)" d="m0 0c1.56 1.81 1.56 1.81 3 4l-1 3c-1.46-2.65-2-3.89-2-7z" fill="#000002"/>
<path transform="translate(773,275)" d="m0 0c1.56 1.81 1.56 1.81 3 4l-1 3c-1.46-2.65-2-3.89-2-7z" fill="#000002"/>
<path transform="translate(615,215)" d="m0 0h3v2h-5l2-2z" fill="#2B2C2F"/>
<path transform="translate(511,209)" d="m0 0c1.98 0.5 1.98 0.5 4 1l-5 2 1-3z" fill="#2B2C2F"/>
<path transform="translate(738,271)" d="m0 0 1 3-2 3 1-6z" fill="#30404F"/>
<path transform="translate(587,207)" d="m0 0 2 2-5 1 3-3z" fill="#2B2C2F"/>
<path transform="translate(1363,287)" d="m0 0c0.99 0.5 0.99 0.5 2 1l-1 3-1-4z" fill="#000002"/>
<path transform="translate(551,280)" d="m0 0h2l-1 4-1-4z" fill="#000002"/>
<path transform="translate(1085,271)" d="m0 0 2 2-1 3-1-5z" fill="#182028"/>
<path transform="translate(1014,272)" d="m0 0c0.99 0.5 0.99 0.5 2 1l-1 4-1-5z" fill="#202A35"/>
<path transform="translate(1360,283)" d="m0 0c0.99 0.5 0.99 0.5 2 1v2h-2v-3z" fill="#000002"/>
<path transform="translate(773,282)" d="m0 0h2l1 3h-2l-1-3z" fill="#30404F"/>
<path transform="translate(760,282)" d="m0 0v3l-2-1 2-2z" fill="#30404F"/>
<path transform="translate(1014,277)" d="m0 0h1v5h-1v-5z" fill="#30404F"/>
<path transform="translate(1363,272)" d="m0 0h1v5h-1v-5z" fill="#30404F"/>
<path transform="translate(764,271)" d="m0 0 1 2-2 2 1-4z" fill="#30404F"/>
<path transform="translate(1284,264)" d="m0 0 1 3h-2l1-3z" fill="#000002"/>
<path transform="translate(1264,264)" d="m0 0 1 3h-2l1-3z" fill="#000002"/>
<path transform="translate(427,264)" d="m0 0 1 3h-2l1-3z" fill="#000002"/>
<path transform="translate(539,218)" d="m0 0h5v1h-5v-1z" fill="#2B2C2F"/>
<path transform="translate(472,42)" d="m0 0h5v1h-5v-1z" fill="#000102"/>
<path transform="translate(802,287)" d="m0 0 1 4z" fill="#2C3137"/>
<path transform="translate(802,282)" d="m0 0 1 4z" fill="#2D363F"/>
<path transform="translate(551,284)" d="m0 0 1 4z" fill="#30404F"/>
<path transform="translate(718,278)" d="m0 0v3z" fill="#222B33"/>
<path transform="translate(1015,270)" d="m0 0c0.99 0.5 0.99 0.5 2 1l-1 2-1-3z" fill="#161B20"/>
<path transform="translate(705,264)" d="m0 0 2 2c-0.99 0.5-0.99 0.5-2 1v-3z" fill="#0A0B0D"/>
<path transform="translate(577,212)" d="m0 0c1.49 0.99 1.49 0.99 3 2h-3v-2z" fill="#0A0B0D"/>
<path transform="translate(1358,282)" d="m0 0c0.99 0.5 0.99 0.5 2 1-0.99 0.5-0.99 0.5-2 1v-2z" fill="#30404F"/>
<path transform="translate(447,264)" d="m0 0 2 2h-2v-2z" fill="#000002"/>
<path transform="translate(740,264)" d="m0 0 1 2-2-1 1-1z" fill="#000002"/>
<path transform="translate(619,215)" d="m0 0c3 1 3 1 3 1z" fill="#2B2C2F"/>
<path transform="translate(564,36)" d="m0 0c3 1 3 1 3 1z" fill="#000102"/>
<path transform="translate(560,36)" d="m0 0c3 1 3 1 3 1z" fill="#000102"/>
<path transform="translate(731,290)" d="m0 0 2 1z" fill="#2D363F"/>
<path transform="translate(551,217)" d="m0 0 2 1z" fill="#2B2C2F"/>
<path transform="translate(582,210)" d="m0 0 2 1z" fill="#2B2C2F"/>
<path transform="translate(516,208)" d="m0 0 2 1z" fill="#2B2C2F"/>
<path transform="translate(589,207)" d="m0 0 2 1z" fill="#2D363F"/>
<path transform="translate(518,207)" d="m0 0 2 1z" fill="#2B2C2F"/>
<path transform="translate(271,93)" d="m0 0 2 1z" fill="#151618"/>
<path transform="translate(366,62)" d="m0 0 2 1z" fill="#000102"/>
<path transform="translate(410,52)" d="m0 0 2 1z" fill="#000102"/>
<path transform="translate(438,47)" d="m0 0 2 1z" fill="#000102"/>
</svg>
